<?xml version="1.0" encoding="UTF-8" standalone="no"?>
<svg
   xmlns:dc="http://purl.org/dc/elements/1.1/"
   xmlns:cc="http://creativecommons.org/ns#"
   xmlns:rdf="http://www.w3.org/1999/02/22-rdf-syntax-ns#"
   xmlns:svg="http://www.w3.org/2000/svg"
   xmlns="http://www.w3.org/2000/svg"
   id="svg2"
   version="1.1"
   viewBox="0 0 512 249"
   height="249pt"
   width="512pt">
  <metadata
     id="metadata181">
    <rdf:RDF>
      <cc:Work
         rdf:about="">
        <dc:format>image/svg+xml</dc:format>
        <dc:type
           rdf:resource="http://purl.org/dc/dcmitype/StillImage" />
      </cc:Work>
    </rdf:RDF>
  </metadata>
  <defs
     id="defs179" />
  <g
     id="surface1">
    <path
       id="path5"
       transform="matrix(1.969231,0,0,-1.969937,33.884554,180.463932)"
       d="M -11.339385 -7.351191 L -11.339385 7.354231 C -11.339385 9.555285 -9.554107 11.339924 -7.352264 11.339924 L 177.433961 11.339924 C 179.635804 11.339924 181.417115 9.555285 181.417115 7.354231 L 181.417115 -7.351191 C 181.417115 -9.554228 179.635804 -11.340849 177.433961 -11.340849 L -7.352264 -11.340849 C -9.554107 -11.340849 -11.339385 -9.554228 -11.339385 -7.351191 Z M -11.339385 -7.351191 "
       style="fill-rule:nonzero;fill:rgb(69.803922%,69.803922%,69.803922%);fill-opacity:1;stroke-width:0.3985;stroke-linecap:butt;stroke-linejoin:miter;stroke:rgb(0%,0%,0%);stroke-opacity:1;stroke-miterlimit:10;" />
    <path
       id="path7"
       transform="matrix(1.969231,0,0,-1.969937,33.884554,180.463932)"
       d="M 17.006867 49.338844 L 17.006867 64.046249 C 17.006867 66.249286 18.792146 68.029959 20.992005 68.029959 L 149.085725 68.029959 C 151.289552 68.029959 153.07483 66.249286 153.07483 64.046249 L 153.07483 49.338844 C 153.07483 47.139773 151.289552 45.355135 149.085725 45.355135 L 20.992005 45.355135 C 18.792146 45.355135 17.006867 47.139773 17.006867 49.338844 Z M 17.006867 49.338844 "
       style="fill-rule:nonzero;fill:rgb(69.803922%,69.803922%,69.803922%);fill-opacity:1;stroke-width:0.3985;stroke-linecap:butt;stroke-linejoin:miter;stroke:rgb(0%,0%,0%);stroke-opacity:1;stroke-miterlimit:10;" />
    <path
       id="path9"
       transform="matrix(1.969231,0,0,-1.969937,33.884554,180.463932)"
       d="M 9.960969 -0.000462851 C 9.960969 5.504156 5.503724 9.963769 -0.000884277 9.963769 C -5.503509 9.963769 -9.960754 5.504156 -9.960754 -0.000462851 C -9.960754 -5.505081 -5.503509 -9.960729 -0.000884277 -9.960729 C 5.503724 -9.960729 9.960969 -5.505081 9.960969 -0.000462851 Z M 9.960969 -0.000462851 "
       style="fill-rule:nonzero;fill:rgb(100%,100%,100%);fill-opacity:1;stroke-width:0.3985;stroke-linecap:butt;stroke-linejoin:miter;stroke:rgb(0%,0%,0%);stroke-opacity:1;stroke-miterlimit:10;" />
    <path
       id="path11"
       d="M 33.929688 175.921875 C 33.929688 174.84375 33.40625 174.535156 33.066406 174.535156 C 32.574219 174.535156 32.082031 175.058594 32.082031 175.488281 C 32.082031 175.738281 32.175781 175.859375 32.390625 176.074219 C 32.820312 176.476562 33.066406 176.96875 33.066406 177.675781 C 33.066406 178.507812 31.867188 183 29.589844 183 C 28.574219 183 28.113281 182.324219 28.113281 181.277344 C 28.113281 180.199219 28.667969 178.753906 29.253906 177.121094 C 29.40625 176.78125 29.5 176.503906 29.5 176.136719 C 29.5 175.273438 28.882812 174.535156 27.898438 174.535156 C 26.050781 174.535156 25.3125 177.398438 25.3125 177.550781 C 25.3125 177.769531 25.5 177.769531 25.53125 177.769531 C 25.746094 177.769531 25.746094 177.707031 25.835938 177.398438 C 26.421875 175.429688 27.253906 174.96875 27.835938 174.96875 C 27.992188 174.96875 28.328125 174.96875 28.328125 175.582031 C 28.328125 176.074219 28.113281 176.628906 27.992188 176.96875 C 27.128906 179.246094 26.882812 180.136719 26.882812 181 C 26.882812 183.125 28.605469 183.429688 29.5 183.429688 C 32.792969 183.429688 33.929688 176.9375 33.929688 175.921875 Z M 33.929688 175.921875 "
       style=" stroke:none;fill-rule:nonzero;fill:rgb(0%,0%,0%);fill-opacity:1;" />
    <path
       id="path13"
       d="M 38.824219 177.417969 C 38.824219 177.050781 38.824219 177.050781 38.421875 177.050781 C 37.53125 177.910156 36.300781 177.910156 35.746094 177.910156 L 35.746094 178.40625 C 36.054688 178.40625 36.976562 178.40625 37.714844 178.035156 L 37.714844 185.023438 C 37.714844 185.484375 37.714844 185.667969 36.363281 185.667969 L 35.839844 185.667969 L 35.839844 186.160156 C 36.085938 186.160156 37.777344 186.097656 38.269531 186.097656 C 38.699219 186.097656 40.421875 186.160156 40.730469 186.160156 L 40.730469 185.667969 L 40.207031 185.667969 C 38.824219 185.667969 38.824219 185.484375 38.824219 185.023438 Z M 38.824219 177.417969 "
       style=" stroke:none;fill-rule:nonzero;fill:rgb(0%,0%,0%);fill-opacity:1;" />
    <path
       id="path15"
       transform="matrix(1.969231,0,0,-1.969937,33.884554,180.463932)"
       d="M 66.655457 -0.000462851 C 66.655457 5.504156 62.196229 9.963769 56.695588 9.963769 C 51.19098 9.963769 46.729768 5.504156 46.729768 -0.000462851 C 46.729768 -5.505081 51.19098 -9.960729 56.695588 -9.960729 C 62.196229 -9.960729 66.655457 -5.505081 66.655457 -0.000462851 Z M 66.655457 -0.000462851 "
       style="fill-rule:nonzero;fill:rgb(100%,100%,100%);fill-opacity:1;stroke-width:0.3985;stroke-linecap:butt;stroke-linejoin:miter;stroke:rgb(0%,0%,0%);stroke-opacity:1;stroke-miterlimit:10;" />
    <path
       id="path17"
       d="M 145.570312 175.921875 C 145.570312 174.84375 145.046875 174.535156 144.710938 174.535156 C 144.21875 174.535156 143.726562 175.058594 143.726562 175.488281 C 143.726562 175.738281 143.816406 175.859375 144.03125 176.074219 C 144.464844 176.476562 144.710938 176.96875 144.710938 177.675781 C 144.710938 178.507812 143.507812 183 141.234375 183 C 140.21875 183 139.753906 182.324219 139.753906 181.277344 C 139.753906 180.199219 140.308594 178.753906 140.894531 177.121094 C 141.046875 176.78125 141.140625 176.503906 141.140625 176.136719 C 141.140625 175.273438 140.523438 174.535156 139.539062 174.535156 C 137.695312 174.535156 136.957031 177.398438 136.957031 177.550781 C 136.957031 177.769531 137.140625 177.769531 137.171875 177.769531 C 137.386719 177.769531 137.386719 177.707031 137.480469 177.398438 C 138.0625 175.429688 138.894531 174.96875 139.480469 174.96875 C 139.632812 174.96875 139.972656 174.96875 139.972656 175.582031 C 139.972656 176.074219 139.753906 176.628906 139.632812 176.96875 C 138.769531 179.246094 138.523438 180.136719 138.523438 181 C 138.523438 183.125 140.25 183.429688 141.140625 183.429688 C 144.433594 183.429688 145.570312 176.9375 145.570312 175.921875 Z M 145.570312 175.921875 "
       style=" stroke:none;fill-rule:nonzero;fill:rgb(0%,0%,0%);fill-opacity:1;" />
    <path
       id="path19"
       d="M 152.804688 183.667969 L 152.34375 183.667969 C 152.3125 183.976562 152.15625 184.777344 151.972656 184.898438 C 151.878906 184.992188 150.835938 184.992188 150.617188 184.992188 L 148.097656 184.992188 C 149.542969 183.730469 150.035156 183.328125 150.835938 182.683594 C 151.851562 181.882812 152.804688 181.019531 152.804688 179.726562 C 152.804688 178.066406 151.359375 177.050781 149.605469 177.050781 C 147.910156 177.050781 146.742188 178.25 146.742188 179.511719 C 146.742188 180.191406 147.328125 180.28125 147.480469 180.28125 C 147.789062 180.28125 148.1875 180.035156 148.1875 179.542969 C 148.1875 179.296875 148.097656 178.804688 147.386719 178.804688 C 147.820312 177.851562 148.742188 177.542969 149.386719 177.542969 C 150.773438 177.542969 151.480469 178.621094 151.480469 179.726562 C 151.480469 180.929688 150.617188 181.851562 150.1875 182.34375 L 146.894531 185.636719 C 146.742188 185.761719 146.742188 185.792969 146.742188 186.160156 L 152.402344 186.160156 Z M 152.804688 183.667969 "
       style=" stroke:none;fill-rule:nonzero;fill:rgb(0%,0%,0%);fill-opacity:1;" />
    <path
       id="path21"
       transform="matrix(1.969231,0,0,-1.969937,33.884554,180.463932)"
       d="M 123.351929 -0.000462851 C 123.351929 5.504156 118.890717 9.963769 113.386109 9.963769 C 107.887452 9.963769 103.42624 5.504156 103.42624 -0.000462851 C 103.42624 -5.505081 107.887452 -9.960729 113.386109 -9.960729 C 118.890717 -9.960729 123.351929 -5.505081 123.351929 -0.000462851 Z M 123.351929 -0.000462851 "
       style="fill-rule:nonzero;fill:rgb(100%,100%,100%);fill-opacity:1;stroke-width:0.3985;stroke-linecap:butt;stroke-linejoin:miter;stroke:rgb(0%,0%,0%);stroke-opacity:1;stroke-miterlimit:10;" />
    <path
       id="path23"
       d="M 257.210938 175.921875 C 257.210938 174.84375 256.6875 174.535156 256.347656 174.535156 C 255.855469 174.535156 255.363281 175.058594 255.363281 175.488281 C 255.363281 175.738281 255.457031 175.859375 255.671875 176.074219 C 256.101562 176.476562 256.347656 176.96875 256.347656 177.675781 C 256.347656 178.507812 255.148438 183 252.871094 183 C 251.855469 183 251.394531 182.324219 251.394531 181.277344 C 251.394531 180.199219 251.949219 178.753906 252.535156 177.121094 C 252.6875 176.78125 252.78125 176.503906 252.78125 176.136719 C 252.78125 175.273438 252.164062 174.535156 251.179688 174.535156 C 249.332031 174.535156 248.59375 177.398438 248.59375 177.550781 C 248.59375 177.769531 248.78125 177.769531 248.8125 177.769531 C 249.027344 177.769531 249.027344 177.707031 249.117188 177.398438 C 249.703125 175.429688 250.535156 174.96875 251.117188 174.96875 C 251.273438 174.96875 251.609375 174.96875 251.609375 175.582031 C 251.609375 176.074219 251.394531 176.628906 251.273438 176.96875 C 250.410156 179.246094 250.164062 180.136719 250.164062 181 C 250.164062 183.125 251.886719 183.429688 252.78125 183.429688 C 256.074219 183.429688 257.210938 176.9375 257.210938 175.921875 Z M 257.210938 175.921875 "
       style=" stroke:none;fill-rule:nonzero;fill:rgb(0%,0%,0%);fill-opacity:1;" />
    <path
       id="path25"
       d="M 261.277344 181.574219 C 262.351562 181.574219 263.121094 182.3125 263.121094 183.789062 C 263.121094 185.484375 262.105469 186.007812 261.335938 186.007812 C 260.785156 186.007812 259.554688 185.851562 259 185.023438 C 259.644531 185.023438 259.800781 184.558594 259.800781 184.253906 C 259.800781 183.820312 259.460938 183.515625 259.03125 183.515625 C 258.660156 183.515625 258.261719 183.761719 258.261719 184.3125 C 258.261719 185.605469 259.675781 186.4375 261.335938 186.4375 C 263.246094 186.4375 264.570312 185.144531 264.570312 183.789062 C 264.570312 182.714844 263.707031 181.636719 262.199219 181.328125 C 263.613281 180.804688 264.136719 179.789062 264.136719 178.925781 C 264.136719 177.851562 262.90625 177.050781 261.367188 177.050781 C 259.859375 177.050781 258.691406 177.789062 258.691406 178.898438 C 258.691406 179.359375 259 179.605469 259.398438 179.605469 C 259.828125 179.605469 260.105469 179.296875 260.105469 178.925781 C 260.105469 178.527344 259.828125 178.21875 259.398438 178.1875 C 259.890625 177.605469 260.816406 177.449219 261.335938 177.449219 C 261.953125 177.449219 262.816406 177.757812 262.816406 178.925781 C 262.816406 179.511719 262.628906 180.160156 262.261719 180.558594 C 261.828125 181.082031 261.429688 181.113281 260.753906 181.175781 C 260.414062 181.207031 260.382812 181.207031 260.320312 181.207031 C 260.292969 181.207031 260.167969 181.234375 260.167969 181.390625 C 260.167969 181.574219 260.292969 181.574219 260.539062 181.574219 Z M 261.277344 181.574219 "
       style=" stroke:none;fill-rule:nonzero;fill:rgb(0%,0%,0%);fill-opacity:1;" />
    <path
       id="path27"
       transform="matrix(1.969231,0,0,-1.969937,33.884554,180.463932)"
       d="M 180.042451 -0.000462851 C 180.042451 5.504156 175.581239 9.963769 170.082581 9.963769 C 164.577973 9.963769 160.116761 5.504156 160.116761 -0.000462851 C 160.116761 -5.505081 164.577973 -9.960729 170.082581 -9.960729 C 175.581239 -9.960729 180.042451 -5.505081 180.042451 -0.000462851 Z M 180.042451 -0.000462851 "
       style="fill-rule:nonzero;fill:rgb(100%,100%,100%);fill-opacity:1;stroke-width:0.3985;stroke-linecap:butt;stroke-linejoin:miter;stroke:rgb(0%,0%,0%);stroke-opacity:1;stroke-miterlimit:10;" />
    <path
       id="path29"
       d="M 368.851562 175.921875 C 368.851562 174.84375 368.328125 174.535156 367.992188 174.535156 C 367.5 174.535156 367.007812 175.058594 367.007812 175.488281 C 367.007812 175.738281 367.097656 175.859375 367.3125 176.074219 C 367.746094 176.476562 367.992188 176.96875 367.992188 177.675781 C 367.992188 178.507812 366.789062 183 364.515625 183 C 363.5 183 363.035156 182.324219 363.035156 181.277344 C 363.035156 180.199219 363.589844 178.753906 364.175781 177.121094 C 364.328125 176.78125 364.421875 176.503906 364.421875 176.136719 C 364.421875 175.273438 363.804688 174.535156 362.820312 174.535156 C 360.976562 174.535156 360.238281 177.398438 360.238281 177.550781 C 360.238281 177.769531 360.421875 177.769531 360.453125 177.769531 C 360.667969 177.769531 360.667969 177.707031 360.761719 177.398438 C 361.34375 175.429688 362.175781 174.96875 362.761719 174.96875 C 362.914062 174.96875 363.253906 174.96875 363.253906 175.582031 C 363.253906 176.074219 363.035156 176.628906 362.914062 176.96875 C 362.050781 179.246094 361.804688 180.136719 361.804688 181 C 361.804688 183.125 363.53125 183.429688 364.421875 183.429688 C 367.714844 183.429688 368.851562 176.9375 368.851562 175.921875 Z M 368.851562 175.921875 "
       style=" stroke:none;fill-rule:nonzero;fill:rgb(0%,0%,0%);fill-opacity:1;" />
    <path
       id="path31"
       d="M 376.421875 183.914062 L 376.421875 183.421875 L 374.886719 183.421875 L 374.886719 177.296875 C 374.886719 177.019531 374.886719 176.894531 374.609375 176.894531 C 374.421875 176.894531 374.363281 176.894531 374.238281 177.113281 L 369.683594 183.421875 L 369.683594 183.914062 L 373.746094 183.914062 L 373.746094 185.023438 C 373.746094 185.515625 373.746094 185.667969 372.609375 185.667969 L 372.238281 185.667969 L 372.238281 186.160156 C 372.945312 186.128906 373.808594 186.097656 374.300781 186.097656 C 374.824219 186.097656 375.683594 186.128906 376.394531 186.160156 L 376.394531 185.667969 L 376.023438 185.667969 C 374.886719 185.667969 374.886719 185.515625 374.886719 185.023438 L 374.886719 183.914062 Z M 373.839844 178.40625 L 373.839844 183.421875 L 370.207031 183.421875 Z M 373.839844 178.40625 "
       style=" stroke:none;fill-rule:nonzero;fill:rgb(0%,0%,0%);fill-opacity:1;" />
    <path
       id="path33"
       d="M 411.273438 178.609375 C 411.394531 178.332031 411.457031 178.210938 412.71875 178.210938 L 412.71875 177.285156 C 412.226562 177.316406 411.671875 177.347656 411.179688 177.347656 C 410.6875 177.347656 409.792969 177.285156 409.394531 177.285156 L 409.394531 178.210938 C 409.765625 178.210938 410.316406 178.273438 410.316406 178.425781 C 410.316406 178.425781 410.316406 178.488281 410.226562 178.640625 L 407.949219 183.566406 L 405.457031 178.210938 L 406.503906 178.210938 L 406.503906 177.285156 C 405.855469 177.316406 404.101562 177.347656 404.070312 177.347656 C 403.519531 177.347656 402.65625 177.285156 401.855469 177.285156 L 401.855469 178.210938 L 403.085938 178.210938 L 406.53125 185.597656 C 406.78125 186.089844 407.027344 186.089844 407.273438 186.089844 C 407.609375 186.089844 407.824219 186.027344 408.011719 185.597656 Z M 411.273438 178.609375 "
       style=" stroke:none;fill-rule:nonzero;fill:rgb(0%,0%,0%);fill-opacity:1;" />
    <path
       id="path35"
       d="M 429.460938 181.472656 C 429.765625 181.472656 430.136719 181.472656 430.136719 181.074219 C 430.136719 180.703125 429.765625 180.703125 429.460938 180.703125 L 421.121094 180.703125 C 421.367188 178.054688 423.613281 176.179688 426.382812 176.179688 L 429.460938 176.179688 C 429.765625 176.179688 430.136719 176.179688 430.136719 175.777344 C 430.136719 175.378906 429.765625 175.378906 429.460938 175.378906 L 426.351562 175.378906 C 422.996094 175.378906 420.320312 177.933594 420.320312 181.074219 C 420.320312 184.242188 422.996094 186.796875 426.351562 186.796875 L 429.460938 186.796875 C 429.765625 186.796875 430.136719 186.796875 430.136719 186.398438 C 430.136719 185.996094 429.765625 185.996094 429.460938 185.996094 L 426.382812 185.996094 C 423.613281 185.996094 421.367188 184.121094 421.121094 181.472656 Z M 429.460938 181.472656 "
       style=" stroke:none;fill-rule:nonzero;fill:rgb(0%,0%,0%);fill-opacity:1;" />
    <path
       id="path37"
       d="M 442.792969 173.871094 C 442.792969 173.101562 443.285156 171.839844 445.4375 171.714844 C 445.53125 171.683594 445.59375 171.59375 445.59375 171.5 C 445.59375 171.253906 445.4375 171.253906 445.222656 171.253906 C 443.285156 171.253906 441.46875 172.269531 441.46875 173.714844 L 441.46875 178.210938 C 441.46875 178.980469 441.46875 179.59375 440.667969 180.242188 C 439.992188 180.828125 439.253906 180.855469 438.824219 180.855469 C 438.699219 180.886719 438.640625 180.980469 438.640625 181.074219 C 438.640625 181.289062 438.761719 181.289062 438.945312 181.320312 C 440.238281 181.378906 441.191406 182.089844 441.410156 183.042969 C 441.46875 183.257812 441.46875 183.320312 441.46875 184.027344 L 441.46875 187.90625 C 441.46875 188.738281 441.46875 189.351562 442.394531 190.089844 C 443.164062 190.675781 444.453125 190.921875 445.222656 190.921875 C 445.4375 190.921875 445.59375 190.921875 445.59375 190.675781 C 445.59375 190.492188 445.5 190.492188 445.285156 190.460938 C 444.054688 190.398438 443.101562 189.753906 442.824219 188.769531 C 442.792969 188.582031 442.792969 188.550781 442.792969 187.84375 L 442.792969 183.71875 C 442.792969 182.828125 442.609375 182.488281 441.992188 181.84375 C 441.59375 181.441406 441.007812 181.257812 440.453125 181.074219 C 442.085938 180.640625 442.792969 179.71875 442.792969 178.578125 Z M 442.792969 173.871094 "
       style=" stroke:none;fill-rule:nonzero;fill:rgb(0%,0%,0%);fill-opacity:1;" />
    <path
       id="path39"
       d="M 456.042969 179.71875 C 456.042969 178.148438 455.953125 176.578125 455.273438 175.132812 C 454.382812 173.222656 452.753906 172.914062 451.953125 172.914062 C 450.753906 172.914062 449.335938 173.4375 448.507812 175.253906 C 447.890625 176.609375 447.796875 178.148438 447.796875 179.71875 C 447.796875 181.195312 447.859375 182.949219 448.691406 184.457031 C 449.519531 186.027344 450.96875 186.429688 451.921875 186.429688 C 452.96875 186.429688 454.476562 186.027344 455.335938 184.152344 C 455.953125 182.796875 456.042969 181.257812 456.042969 179.71875 Z M 451.921875 185.996094 C 451.152344 185.996094 449.984375 185.503906 449.644531 183.628906 C 449.429688 182.457031 449.429688 180.640625 449.429688 179.472656 C 449.429688 178.210938 449.429688 176.917969 449.582031 175.871094 C 449.953125 173.53125 451.429688 173.347656 451.921875 173.347656 C 452.566406 173.347656 453.859375 173.714844 454.230469 175.65625 C 454.445312 176.761719 454.445312 178.242188 454.445312 179.472656 C 454.445312 180.949219 454.445312 182.273438 454.230469 183.535156 C 453.921875 185.414062 452.8125 185.996094 451.921875 185.996094 Z M 451.921875 185.996094 "
       style=" stroke:none;fill-rule:nonzero;fill:rgb(0%,0%,0%);fill-opacity:1;" />
    <path
       id="path41"
       d="M 460.839844 185.964844 C 460.839844 184.675781 460.34375 183.90625 459.578125 183.90625 C 458.929688 183.90625 458.53125 184.398438 458.53125 184.949219 C 458.53125 185.472656 458.929688 185.996094 459.578125 185.996094 C 459.792969 185.996094 460.070312 185.90625 460.253906 185.75 C 460.316406 185.691406 460.34375 185.691406 460.34375 185.691406 C 460.375 185.691406 460.375 185.691406 460.375 185.964844 C 460.375 187.445312 459.699219 188.613281 459.054688 189.261719 C 458.839844 189.476562 458.839844 189.507812 458.839844 189.566406 C 458.839844 189.722656 458.929688 189.785156 459.023438 189.785156 C 459.238281 189.785156 460.839844 188.273438 460.839844 185.964844 Z M 460.839844 185.964844 "
       style=" stroke:none;fill-rule:nonzero;fill:rgb(0%,0%,0%);fill-opacity:1;" />
    <path
       id="path43"
       d="M 471.34375 173.4375 C 471.34375 172.945312 471.34375 172.914062 470.878906 172.914062 C 469.648438 174.179688 467.925781 174.179688 467.3125 174.179688 L 467.3125 174.792969 C 467.710938 174.792969 468.851562 174.792969 469.867188 174.269531 L 469.867188 184.457031 C 469.867188 185.167969 469.804688 185.382812 468.050781 185.382812 L 467.433594 185.382812 L 467.433594 185.996094 C 468.113281 185.9375 469.804688 185.9375 470.605469 185.9375 C 471.371094 185.9375 473.097656 185.9375 473.773438 185.996094 L 473.773438 185.382812 L 473.15625 185.382812 C 471.371094 185.382812 471.34375 185.167969 471.34375 184.457031 Z M 471.34375 173.4375 "
       style=" stroke:none;fill-rule:nonzero;fill:rgb(0%,0%,0%);fill-opacity:1;" />
    <path
       id="path45"
       d="M 479.613281 188.304688 C 479.613281 189.074219 479.089844 190.335938 476.964844 190.460938 C 476.84375 190.492188 476.78125 190.582031 476.78125 190.675781 C 476.78125 190.921875 476.996094 190.921875 477.183594 190.921875 C 479.089844 190.921875 480.90625 189.9375 480.9375 188.460938 L 480.9375 183.964844 C 480.9375 183.195312 480.9375 182.582031 481.703125 181.933594 C 482.382812 181.351562 483.152344 181.320312 483.582031 181.320312 C 483.675781 181.289062 483.734375 181.195312 483.734375 181.074219 C 483.734375 180.886719 483.644531 180.886719 483.429688 180.855469 C 482.136719 180.796875 481.183594 180.085938 480.964844 179.132812 C 480.9375 178.917969 480.9375 178.855469 480.9375 178.148438 L 480.9375 174.269531 C 480.9375 173.4375 480.9375 172.824219 479.980469 172.085938 C 479.183594 171.46875 477.828125 171.253906 477.183594 171.253906 C 476.996094 171.253906 476.78125 171.253906 476.78125 171.5 C 476.78125 171.683594 476.90625 171.683594 477.089844 171.714844 C 478.320312 171.777344 479.304688 172.421875 479.550781 173.410156 C 479.613281 173.59375 479.613281 173.625 479.613281 174.332031 L 479.613281 178.457031 C 479.613281 179.347656 479.765625 179.6875 480.382812 180.332031 C 480.8125 180.734375 481.367188 180.917969 481.921875 181.074219 C 480.320312 181.535156 479.613281 182.457031 479.613281 183.597656 Z M 479.613281 188.304688 "
       style=" stroke:none;fill-rule:nonzero;fill:rgb(0%,0%,0%);fill-opacity:1;" />
    <path
       id="path47"
       d="M 492.4375 176.628906 L 492.4375 176.136719 L 490.898438 176.136719 L 490.898438 170.011719 C 490.898438 169.734375 490.898438 169.609375 490.621094 169.609375 C 490.4375 169.609375 490.375 169.609375 490.253906 169.828125 L 485.699219 176.136719 L 485.699219 176.628906 L 489.757812 176.628906 L 489.757812 177.738281 C 489.757812 178.230469 489.757812 178.382812 488.621094 178.382812 L 488.253906 178.382812 L 488.253906 178.875 C 488.960938 178.84375 489.820312 178.816406 490.3125 178.816406 C 490.835938 178.816406 491.699219 178.84375 492.40625 178.875 L 492.40625 178.382812 L 492.035156 178.382812 C 490.898438 178.382812 490.898438 178.230469 490.898438 177.738281 L 490.898438 176.628906 Z M 489.851562 171.121094 L 489.851562 176.136719 L 486.222656 176.136719 Z M 489.851562 171.121094 "
       style=" stroke:none;fill-rule:nonzero;fill:rgb(0%,0%,0%);fill-opacity:1;" />
    <path
       id="path49"
       d="M 26.109375 213.210938 C 26.109375 213.210938 26.109375 212.992188 25.863281 212.992188 C 25.429688 212.992188 23.984375 213.148438 23.460938 213.210938 C 23.308594 213.210938 23.09375 213.238281 23.09375 213.578125 C 23.09375 213.824219 23.277344 213.824219 23.585938 213.824219 C 24.507812 213.824219 24.539062 213.949219 24.539062 214.164062 C 24.539062 214.285156 24.386719 214.964844 24.292969 215.363281 L 22.660156 221.765625 C 22.445312 222.75 22.355469 223.089844 22.355469 223.765625 C 22.355469 225.613281 23.398438 226.84375 24.847656 226.84375 C 27.152344 226.84375 29.585938 223.921875 29.585938 221.089844 C 29.585938 219.304688 28.539062 217.949219 26.96875 217.949219 C 26.078125 217.949219 25.246094 218.535156 24.660156 219.117188 Z M 24.292969 220.628906 C 24.386719 220.195312 24.386719 220.164062 24.570312 219.949219 C 25.523438 218.6875 26.414062 218.378906 26.9375 218.378906 C 27.648438 218.378906 28.167969 218.964844 28.167969 220.226562 C 28.167969 221.398438 27.523438 223.644531 27.152344 224.382812 C 26.507812 225.707031 25.617188 226.414062 24.847656 226.414062 C 24.167969 226.414062 23.523438 225.890625 23.523438 224.445312 C 23.523438 224.042969 23.523438 223.675781 23.832031 222.441406 Z M 24.292969 220.628906 "
       style=" stroke:none;fill-rule:nonzero;fill:rgb(100%,0%,0%);fill-opacity:1;" />
    <path
       id="path51"
       d="M 37.175781 224.585938 C 37.175781 223.507812 36.527344 223.507812 36.496094 223.507812 C 36.128906 223.507812 35.757812 223.878906 35.757812 224.246094 C 35.757812 224.464844 35.882812 224.585938 35.976562 224.648438 C 36.222656 224.863281 36.496094 225.203125 36.496094 225.753906 C 36.496094 226.371094 35.574219 229.328125 33.945312 229.328125 C 32.835938 229.328125 32.835938 228.339844 32.835938 228.09375 C 32.835938 227.480469 33.082031 226.710938 33.605469 225.417969 C 33.699219 225.140625 33.789062 224.925781 33.789062 224.710938 C 33.789062 223.96875 33.175781 223.507812 32.496094 223.507812 C 31.113281 223.507812 30.496094 225.386719 30.496094 225.632812 C 30.496094 225.785156 30.683594 225.785156 30.742188 225.785156 C 30.929688 225.785156 30.929688 225.726562 30.988281 225.570312 C 31.296875 224.464844 31.882812 223.910156 32.4375 223.910156 C 32.683594 223.910156 32.773438 224.0625 32.773438 224.371094 C 32.773438 224.710938 32.683594 224.984375 32.527344 225.292969 C 31.945312 226.832031 31.789062 227.417969 31.789062 227.910156 C 31.789062 229.265625 32.867188 229.695312 33.914062 229.695312 C 36.222656 229.695312 37.175781 225.726562 37.175781 224.585938 Z M 37.175781 224.585938 "
       style=" stroke:none;fill-rule:nonzero;fill:rgb(100%,0%,0%);fill-opacity:1;" />
    <path
       id="path53"
       d="M 41.605469 225.285156 C 41.605469 225.007812 41.574219 225.007812 41.238281 225.007812 C 40.558594 225.625 39.453125 225.625 39.269531 225.625 L 39.113281 225.625 L 39.113281 226.054688 L 39.269531 226.054688 C 39.484375 226.054688 40.128906 226.023438 40.714844 225.777344 L 40.714844 230.703125 C 40.714844 230.980469 40.714844 231.105469 39.667969 231.105469 L 39.175781 231.105469 L 39.175781 231.535156 C 39.699219 231.503906 40.589844 231.503906 41.144531 231.503906 C 41.730469 231.503906 42.589844 231.503906 43.144531 231.535156 L 43.144531 231.105469 L 42.652344 231.105469 C 41.605469 231.105469 41.605469 230.980469 41.605469 230.703125 Z M 41.605469 225.285156 "
       style=" stroke:none;fill-rule:nonzero;fill:rgb(100%,0%,0%);fill-opacity:1;" />
    <path
       id="path55"
       d="M 137.75 213.210938 C 137.75 213.210938 137.75 212.992188 137.503906 212.992188 C 137.074219 212.992188 135.625 213.148438 135.101562 213.210938 C 134.949219 213.210938 134.734375 213.238281 134.734375 213.578125 C 134.734375 213.824219 134.917969 213.824219 135.226562 213.824219 C 136.148438 213.824219 136.179688 213.949219 136.179688 214.164062 C 136.179688 214.285156 136.027344 214.964844 135.933594 215.363281 L 134.304688 221.765625 C 134.089844 222.75 133.996094 223.089844 133.996094 223.765625 C 133.996094 225.613281 135.042969 226.84375 136.488281 226.84375 C 138.796875 226.84375 141.226562 223.921875 141.226562 221.089844 C 141.226562 219.304688 140.179688 217.949219 138.609375 217.949219 C 137.71875 217.949219 136.886719 218.535156 136.304688 219.117188 Z M 135.933594 220.628906 C 136.027344 220.195312 136.027344 220.164062 136.210938 219.949219 C 137.164062 218.6875 138.058594 218.378906 138.582031 218.378906 C 139.289062 218.378906 139.8125 218.964844 139.8125 220.226562 C 139.8125 221.398438 139.164062 223.644531 138.796875 224.382812 C 138.148438 225.707031 137.257812 226.414062 136.488281 226.414062 C 135.8125 226.414062 135.164062 225.890625 135.164062 224.445312 C 135.164062 224.042969 135.164062 223.675781 135.472656 222.441406 Z M 135.933594 220.628906 "
       style=" stroke:none;fill-rule:nonzero;fill:rgb(100%,0%,0%);fill-opacity:1;" />
    <path
       id="path57"
       d="M 148.816406 224.585938 C 148.816406 223.507812 148.171875 223.507812 148.140625 223.507812 C 147.769531 223.507812 147.402344 223.878906 147.402344 224.246094 C 147.402344 224.464844 147.523438 224.585938 147.617188 224.648438 C 147.863281 224.863281 148.140625 225.203125 148.140625 225.753906 C 148.140625 226.371094 147.214844 229.328125 145.585938 229.328125 C 144.476562 229.328125 144.476562 228.339844 144.476562 228.09375 C 144.476562 227.480469 144.722656 226.710938 145.246094 225.417969 C 145.339844 225.140625 145.429688 224.925781 145.429688 224.710938 C 145.429688 223.96875 144.816406 223.507812 144.140625 223.507812 C 142.753906 223.507812 142.140625 225.386719 142.140625 225.632812 C 142.140625 225.785156 142.324219 225.785156 142.386719 225.785156 C 142.570312 225.785156 142.570312 225.726562 142.632812 225.570312 C 142.9375 224.464844 143.523438 223.910156 144.078125 223.910156 C 144.324219 223.910156 144.417969 224.0625 144.417969 224.371094 C 144.417969 224.710938 144.324219 224.984375 144.171875 225.292969 C 143.585938 226.832031 143.429688 227.417969 143.429688 227.910156 C 143.429688 229.265625 144.507812 229.695312 145.554688 229.695312 C 147.863281 229.695312 148.816406 225.726562 148.816406 224.585938 Z M 148.816406 224.585938 "
       style=" stroke:none;fill-rule:nonzero;fill:rgb(100%,0%,0%);fill-opacity:1;" />
    <path
       id="path59"
       d="M 155.125 229.625 L 154.695312 229.625 C 154.695312 229.8125 154.570312 230.425781 154.417969 230.519531 C 154.355469 230.582031 153.523438 230.582031 153.371094 230.582031 L 151.464844 230.582031 C 152.109375 230.117188 152.816406 229.566406 153.402344 229.164062 C 154.292969 228.550781 155.125 227.996094 155.125 226.949219 C 155.125 225.6875 153.925781 225.007812 152.539062 225.007812 C 151.21875 225.007812 150.234375 225.746094 150.234375 226.734375 C 150.234375 227.226562 150.664062 227.316406 150.816406 227.316406 C 151.0625 227.316406 151.371094 227.132812 151.371094 226.734375 C 151.371094 226.394531 151.125 226.179688 150.816406 226.179688 C 151.09375 225.71875 151.679688 225.441406 152.324219 225.441406 C 153.277344 225.441406 154.078125 225.992188 154.078125 226.949219 C 154.078125 227.78125 153.496094 228.425781 152.757812 229.042969 L 150.355469 231.074219 C 150.261719 231.164062 150.234375 231.164062 150.234375 231.226562 L 150.234375 231.535156 L 154.785156 231.535156 Z M 155.125 229.625 "
       style=" stroke:none;fill-rule:nonzero;fill:rgb(100%,0%,0%);fill-opacity:1;" />
    <path
       id="path61"
       d="M 249.390625 213.210938 C 249.390625 213.210938 249.390625 212.992188 249.144531 212.992188 C 248.714844 212.992188 247.269531 213.148438 246.746094 213.210938 C 246.589844 213.210938 246.375 213.238281 246.375 213.578125 C 246.375 213.824219 246.558594 213.824219 246.867188 213.824219 C 247.792969 213.824219 247.820312 213.949219 247.820312 214.164062 C 247.820312 214.285156 247.667969 214.964844 247.574219 215.363281 L 245.945312 221.765625 C 245.730469 222.75 245.636719 223.089844 245.636719 223.765625 C 245.636719 225.613281 246.683594 226.84375 248.128906 226.84375 C 250.4375 226.84375 252.867188 223.921875 252.867188 221.089844 C 252.867188 219.304688 251.820312 217.949219 250.253906 217.949219 C 249.359375 217.949219 248.53125 218.535156 247.945312 219.117188 Z M 247.574219 220.628906 C 247.667969 220.195312 247.667969 220.164062 247.851562 219.949219 C 248.808594 218.6875 249.699219 218.378906 250.222656 218.378906 C 250.929688 218.378906 251.453125 218.964844 251.453125 220.226562 C 251.453125 221.398438 250.808594 223.644531 250.4375 224.382812 C 249.792969 225.707031 248.898438 226.414062 248.128906 226.414062 C 247.453125 226.414062 246.808594 225.890625 246.808594 224.445312 C 246.808594 224.042969 246.808594 223.675781 247.113281 222.441406 Z M 247.574219 220.628906 "
       style=" stroke:none;fill-rule:nonzero;fill:rgb(100%,0%,0%);fill-opacity:1;" />
    <path
       id="path63"
       d="M 260.457031 224.585938 C 260.457031 223.507812 259.8125 223.507812 259.78125 223.507812 C 259.410156 223.507812 259.042969 223.878906 259.042969 224.246094 C 259.042969 224.464844 259.164062 224.585938 259.257812 224.648438 C 259.503906 224.863281 259.78125 225.203125 259.78125 225.753906 C 259.78125 226.371094 258.859375 229.328125 257.226562 229.328125 C 256.121094 229.328125 256.121094 228.339844 256.121094 228.09375 C 256.121094 227.480469 256.367188 226.710938 256.886719 225.417969 C 256.980469 225.140625 257.074219 224.925781 257.074219 224.710938 C 257.074219 223.96875 256.457031 223.507812 255.78125 223.507812 C 254.394531 223.507812 253.78125 225.386719 253.78125 225.632812 C 253.78125 225.785156 253.964844 225.785156 254.027344 225.785156 C 254.210938 225.785156 254.210938 225.726562 254.273438 225.570312 C 254.582031 224.464844 255.164062 223.910156 255.71875 223.910156 C 255.964844 223.910156 256.058594 224.0625 256.058594 224.371094 C 256.058594 224.710938 255.964844 224.984375 255.8125 225.292969 C 255.226562 226.832031 255.074219 227.417969 255.074219 227.910156 C 255.074219 229.265625 256.148438 229.695312 257.195312 229.695312 C 259.503906 229.695312 260.457031 225.726562 260.457031 224.585938 Z M 260.457031 224.585938 "
       style=" stroke:none;fill-rule:nonzero;fill:rgb(100%,0%,0%);fill-opacity:1;" />
    <path
       id="path65"
       d="M 264.214844 228.273438 C 265.136719 228.273438 265.71875 228.855469 265.71875 229.8125 C 265.71875 230.828125 265.105469 231.351562 264.242188 231.351562 C 264.121094 231.351562 262.953125 231.351562 262.460938 230.828125 C 262.859375 230.765625 262.980469 230.488281 262.980469 230.242188 C 262.980469 229.871094 262.707031 229.625 262.367188 229.625 C 262.058594 229.625 261.78125 229.839844 261.78125 230.273438 C 261.78125 231.289062 262.921875 231.75 264.273438 231.75 C 265.875 231.75 266.859375 230.765625 266.859375 229.8125 C 266.859375 229.011719 266.152344 228.332031 265.042969 228.085938 C 266.214844 227.6875 266.519531 226.949219 266.519531 226.394531 C 266.519531 225.59375 265.535156 225.007812 264.304688 225.007812 C 263.074219 225.007812 262.121094 225.5 262.121094 226.394531 C 262.121094 226.855469 262.488281 226.980469 262.675781 226.980469 C 262.953125 226.980469 263.226562 226.761719 263.226562 226.394531 C 263.226562 226.179688 263.105469 225.902344 262.765625 225.839844 C 263.167969 225.410156 264.058594 225.378906 264.273438 225.378906 C 264.980469 225.378906 265.472656 225.71875 265.472656 226.394531 C 265.472656 226.980469 265.105469 227.871094 264.089844 227.933594 C 263.8125 227.933594 263.78125 227.933594 263.503906 227.964844 C 263.414062 227.964844 263.289062 227.964844 263.289062 228.117188 C 263.289062 228.273438 263.382812 228.273438 263.566406 228.273438 Z M 264.214844 228.273438 "
       style=" stroke:none;fill-rule:nonzero;fill:rgb(100%,0%,0%);fill-opacity:1;" />
    <path
       id="path67"
       d="M 361.03125 213.210938 C 361.03125 213.210938 361.03125 212.992188 360.785156 212.992188 C 360.355469 212.992188 358.910156 213.148438 358.386719 213.210938 C 358.234375 213.210938 358.015625 213.238281 358.015625 213.578125 C 358.015625 213.824219 358.203125 213.824219 358.511719 213.824219 C 359.433594 213.824219 359.464844 213.949219 359.464844 214.164062 C 359.464844 214.285156 359.308594 214.964844 359.21875 215.363281 L 357.585938 221.765625 C 357.371094 222.75 357.277344 223.089844 357.277344 223.765625 C 357.277344 225.613281 358.324219 226.84375 359.769531 226.84375 C 362.078125 226.84375 364.511719 223.921875 364.511719 221.089844 C 364.511719 219.304688 363.464844 217.949219 361.894531 217.949219 C 361.003906 217.949219 360.171875 218.535156 359.585938 219.117188 Z M 359.21875 220.628906 C 359.308594 220.195312 359.308594 220.164062 359.496094 219.949219 C 360.449219 218.6875 361.339844 218.378906 361.863281 218.378906 C 362.570312 218.378906 363.09375 218.964844 363.09375 220.226562 C 363.09375 221.398438 362.449219 223.644531 362.078125 224.382812 C 361.433594 225.707031 360.539062 226.414062 359.769531 226.414062 C 359.09375 226.414062 358.449219 225.890625 358.449219 224.445312 C 358.449219 224.042969 358.449219 223.675781 358.757812 222.441406 Z M 359.21875 220.628906 "
       style=" stroke:none;fill-rule:nonzero;fill:rgb(100%,0%,0%);fill-opacity:1;" />
    <path
       id="path69"
       d="M 372.097656 224.585938 C 372.097656 223.507812 371.453125 223.507812 371.421875 223.507812 C 371.054688 223.507812 370.683594 223.878906 370.683594 224.246094 C 370.683594 224.464844 370.808594 224.585938 370.898438 224.648438 C 371.144531 224.863281 371.421875 225.203125 371.421875 225.753906 C 371.421875 226.371094 370.5 229.328125 368.867188 229.328125 C 367.761719 229.328125 367.761719 228.339844 367.761719 228.09375 C 367.761719 227.480469 368.007812 226.710938 368.53125 225.417969 C 368.621094 225.140625 368.714844 224.925781 368.714844 224.710938 C 368.714844 223.96875 368.097656 223.507812 367.421875 223.507812 C 366.039062 223.507812 365.421875 225.386719 365.421875 225.632812 C 365.421875 225.785156 365.605469 225.785156 365.667969 225.785156 C 365.851562 225.785156 365.851562 225.726562 365.914062 225.570312 C 366.222656 224.464844 366.808594 223.910156 367.359375 223.910156 C 367.605469 223.910156 367.699219 224.0625 367.699219 224.371094 C 367.699219 224.710938 367.605469 224.984375 367.453125 225.292969 C 366.867188 226.832031 366.714844 227.417969 366.714844 227.910156 C 366.714844 229.265625 367.792969 229.695312 368.839844 229.695312 C 371.144531 229.695312 372.097656 225.726562 372.097656 224.585938 Z M 372.097656 224.585938 "
       style=" stroke:none;fill-rule:nonzero;fill:rgb(100%,0%,0%);fill-opacity:1;" />
    <path
       id="path71"
       d="M 378.683594 229.933594 L 378.683594 229.503906 L 377.453125 229.503906 L 377.453125 225.195312 C 377.453125 224.949219 377.453125 224.886719 377.175781 224.886719 C 376.992188 224.886719 376.992188 224.886719 376.871094 225.039062 L 373.238281 229.503906 L 373.238281 229.933594 L 376.5 229.933594 L 376.5 230.703125 C 376.5 231.011719 376.5 231.105469 375.667969 231.105469 L 375.300781 231.105469 L 375.300781 231.535156 C 375.761719 231.503906 376.410156 231.503906 376.992188 231.503906 C 377.546875 231.503906 378.191406 231.503906 378.65625 231.535156 L 378.65625 231.105469 L 378.316406 231.105469 C 377.453125 231.105469 377.453125 231.011719 377.453125 230.703125 L 377.453125 229.933594 Z M 376.59375 225.933594 L 376.59375 229.503906 L 373.699219 229.503906 Z M 376.59375 225.933594 "
       style=" stroke:none;fill-rule:nonzero;fill:rgb(100%,0%,0%);fill-opacity:1;" />
    <path
       id="path73"
       transform="matrix(1.969231,0,0,-1.969937,33.884554,180.463932)"
       d="M 38.309205 56.695521 C 38.309205 62.194191 33.847993 66.655787 28.347352 66.655787 C 22.844727 66.655787 18.383515 62.194191 18.383515 56.695521 C 18.383515 51.190903 22.844727 46.729306 28.347352 46.729306 C 33.847993 46.729306 38.309205 51.190903 38.309205 56.695521 Z M 38.309205 56.695521 "
       style="fill-rule:nonzero;fill:rgb(100%,100%,100%);fill-opacity:1;stroke-width:0.3985;stroke-linecap:butt;stroke-linejoin:miter;stroke:rgb(0%,0%,0%);stroke-opacity:1;stroke-miterlimit:10;" />
    <path
       id="path75"
       d="M 85.285156 60.703125 C 85.285156 60.703125 85.285156 60.488281 85.039062 60.488281 C 84.578125 60.488281 83.160156 60.644531 82.636719 60.703125 C 82.484375 60.703125 82.269531 60.734375 82.269531 61.074219 C 82.269531 61.320312 82.453125 61.320312 82.730469 61.320312 C 83.683594 61.320312 83.714844 61.441406 83.714844 61.660156 L 83.652344 62.058594 L 80.824219 73.355469 C 80.730469 73.632812 80.730469 73.664062 80.730469 73.785156 C 80.730469 74.246094 81.128906 74.339844 81.316406 74.339844 C 81.621094 74.339844 81.929688 74.09375 82.023438 73.816406 L 82.390625 72.339844 L 82.824219 70.585938 C 82.945312 70.125 83.070312 69.691406 83.160156 69.261719 C 83.191406 69.136719 83.375 68.492188 83.375 68.367188 C 83.4375 68.183594 84.054688 67.105469 84.730469 66.554688 C 85.160156 66.246094 85.746094 65.875 86.605469 65.875 C 87.4375 65.875 87.652344 66.554688 87.652344 67.261719 C 87.652344 68.308594 86.914062 70.460938 86.453125 71.664062 C 86.300781 72.09375 86.175781 72.339844 86.175781 72.738281 C 86.175781 73.664062 86.882812 74.339844 87.808594 74.339844 C 89.652344 74.339844 90.359375 71.476562 90.359375 71.324219 C 90.359375 71.109375 90.207031 71.109375 90.144531 71.109375 C 89.929688 71.109375 89.929688 71.167969 89.839844 71.476562 C 89.5625 72.523438 88.914062 73.910156 87.839844 73.910156 C 87.5 73.910156 87.375 73.726562 87.375 73.261719 C 87.375 72.769531 87.53125 72.308594 87.714844 71.878906 C 88.023438 71.015625 88.914062 68.675781 88.914062 67.539062 C 88.914062 66.277344 88.144531 65.445312 86.667969 65.445312 C 85.4375 65.445312 84.484375 66.058594 83.746094 66.953125 Z M 85.285156 60.703125 "
       style=" stroke:none;fill-rule:nonzero;fill:rgb(0%,0%,0%);fill-opacity:1;" />
    <path
       id="path77"
       d="M 95.542969 68.328125 C 95.542969 67.957031 95.542969 67.957031 95.140625 67.957031 C 94.25 68.820312 93.019531 68.820312 92.464844 68.820312 L 92.464844 69.3125 C 92.773438 69.3125 93.695312 69.3125 94.433594 68.941406 L 94.433594 75.929688 C 94.433594 76.390625 94.433594 76.574219 93.078125 76.574219 L 92.558594 76.574219 L 92.558594 77.066406 C 92.804688 77.066406 94.496094 77.007812 94.988281 77.007812 C 95.417969 77.007812 97.140625 77.066406 97.449219 77.066406 L 97.449219 76.574219 L 96.925781 76.574219 C 95.542969 76.574219 95.542969 76.390625 95.542969 75.929688 Z M 95.542969 68.328125 "
       style=" stroke:none;fill-rule:nonzero;fill:rgb(0%,0%,0%);fill-opacity:1;" />
    <path
       id="path79"
       transform="matrix(1.969231,0,0,-1.969937,33.884554,180.463932)"
       d="M 95.003693 56.695521 C 95.003693 62.194191 90.542481 66.655787 85.039857 66.655787 C 79.539216 66.655787 75.078004 62.194191 75.078004 56.695521 C 75.078004 51.190903 79.539216 46.729306 85.039857 46.729306 C 90.542481 46.729306 95.003693 51.190903 95.003693 56.695521 Z M 95.003693 56.695521 "
       style="fill-rule:nonzero;fill:rgb(100%,100%,100%);fill-opacity:1;stroke-width:0.3985;stroke-linecap:butt;stroke-linejoin:miter;stroke:rgb(0%,0%,0%);stroke-opacity:1;stroke-miterlimit:10;" />
    <path
       id="path81"
       d="M 196.925781 60.703125 C 196.925781 60.703125 196.925781 60.488281 196.679688 60.488281 C 196.21875 60.488281 194.800781 60.644531 194.28125 60.703125 C 194.125 60.703125 193.910156 60.734375 193.910156 61.074219 C 193.910156 61.320312 194.09375 61.320312 194.371094 61.320312 C 195.324219 61.320312 195.355469 61.441406 195.355469 61.660156 L 195.296875 62.058594 L 192.464844 73.355469 C 192.371094 73.632812 192.371094 73.664062 192.371094 73.785156 C 192.371094 74.246094 192.773438 74.339844 192.957031 74.339844 C 193.265625 74.339844 193.570312 74.09375 193.664062 73.816406 L 194.035156 72.339844 L 194.464844 70.585938 C 194.585938 70.125 194.710938 69.691406 194.800781 69.261719 C 194.832031 69.136719 195.019531 68.492188 195.019531 68.367188 C 195.078125 68.183594 195.695312 67.105469 196.371094 66.554688 C 196.800781 66.246094 197.386719 65.875 198.25 65.875 C 199.078125 65.875 199.296875 66.554688 199.296875 67.261719 C 199.296875 68.308594 198.554688 70.460938 198.09375 71.664062 C 197.941406 72.09375 197.816406 72.339844 197.816406 72.738281 C 197.816406 73.664062 198.527344 74.339844 199.449219 74.339844 C 201.296875 74.339844 202.003906 71.476562 202.003906 71.324219 C 202.003906 71.109375 201.847656 71.109375 201.789062 71.109375 C 201.570312 71.109375 201.570312 71.167969 201.480469 71.476562 C 201.203125 72.523438 200.554688 73.910156 199.480469 73.910156 C 199.140625 73.910156 199.019531 73.726562 199.019531 73.261719 C 199.019531 72.769531 199.171875 72.308594 199.355469 71.878906 C 199.664062 71.015625 200.554688 68.675781 200.554688 67.539062 C 200.554688 66.277344 199.789062 65.445312 198.308594 65.445312 C 197.078125 65.445312 196.125 66.058594 195.386719 66.953125 Z M 196.925781 60.703125 "
       style=" stroke:none;fill-rule:nonzero;fill:rgb(0%,0%,0%);fill-opacity:1;" />
    <path
       id="path83"
       d="M 209.519531 74.574219 L 209.058594 74.574219 C 209.027344 74.882812 208.875 75.683594 208.691406 75.804688 C 208.597656 75.898438 207.550781 75.898438 207.335938 75.898438 L 204.8125 75.898438 C 206.261719 74.636719 206.753906 74.234375 207.550781 73.589844 C 208.566406 72.789062 209.519531 71.925781 209.519531 70.636719 C 209.519531 68.972656 208.074219 67.957031 206.320312 67.957031 C 204.628906 67.957031 203.460938 69.15625 203.460938 70.417969 C 203.460938 71.097656 204.042969 71.1875 204.199219 71.1875 C 204.507812 71.1875 204.90625 70.941406 204.90625 70.449219 C 204.90625 70.203125 204.8125 69.710938 204.105469 69.710938 C 204.535156 68.757812 205.460938 68.449219 206.105469 68.449219 C 207.492188 68.449219 208.199219 69.527344 208.199219 70.636719 C 208.199219 71.835938 207.335938 72.757812 206.90625 73.25 L 203.613281 76.542969 C 203.460938 76.667969 203.460938 76.699219 203.460938 77.066406 L 209.121094 77.066406 Z M 209.519531 74.574219 "
       style=" stroke:none;fill-rule:nonzero;fill:rgb(0%,0%,0%);fill-opacity:1;" />
    <path
       id="path85"
       transform="matrix(1.969231,0,0,-1.969937,33.884554,180.463932)"
       d="M 151.696198 56.695521 C 151.696198 62.194191 147.238953 66.655787 141.734345 66.655787 C 136.229737 66.655787 131.770509 62.194191 131.770509 56.695521 C 131.770509 51.190903 136.229737 46.729306 141.734345 46.729306 C 147.238953 46.729306 151.696198 51.190903 151.696198 56.695521 Z M 151.696198 56.695521 "
       style="fill-rule:nonzero;fill:rgb(100%,100%,100%);fill-opacity:1;stroke-width:0.3985;stroke-linecap:butt;stroke-linejoin:miter;stroke:rgb(0%,0%,0%);stroke-opacity:1;stroke-miterlimit:10;" />
    <path
       id="path87"
       d="M 308.566406 60.703125 C 308.566406 60.703125 308.566406 60.488281 308.320312 60.488281 C 307.859375 60.488281 306.441406 60.644531 305.917969 60.703125 C 305.765625 60.703125 305.550781 60.734375 305.550781 61.074219 C 305.550781 61.320312 305.734375 61.320312 306.011719 61.320312 C 306.964844 61.320312 306.996094 61.441406 306.996094 61.660156 L 306.933594 62.058594 L 304.105469 73.355469 C 304.011719 73.632812 304.011719 73.664062 304.011719 73.785156 C 304.011719 74.246094 304.410156 74.339844 304.597656 74.339844 C 304.902344 74.339844 305.210938 74.09375 305.304688 73.816406 L 305.671875 72.339844 L 306.105469 70.585938 C 306.226562 70.125 306.351562 69.691406 306.441406 69.261719 C 306.472656 69.136719 306.65625 68.492188 306.65625 68.367188 C 306.71875 68.183594 307.335938 67.105469 308.011719 66.554688 C 308.441406 66.246094 309.027344 65.875 309.886719 65.875 C 310.71875 65.875 310.933594 66.554688 310.933594 67.261719 C 310.933594 68.308594 310.195312 70.460938 309.734375 71.664062 C 309.582031 72.09375 309.457031 72.339844 309.457031 72.738281 C 309.457031 73.664062 310.164062 74.339844 311.089844 74.339844 C 312.933594 74.339844 313.640625 71.476562 313.640625 71.324219 C 313.640625 71.109375 313.488281 71.109375 313.425781 71.109375 C 313.210938 71.109375 313.210938 71.167969 313.121094 71.476562 C 312.84375 72.523438 312.195312 73.910156 311.121094 73.910156 C 310.78125 73.910156 310.65625 73.726562 310.65625 73.261719 C 310.65625 72.769531 310.8125 72.308594 310.996094 71.878906 C 311.304688 71.015625 312.195312 68.675781 312.195312 67.539062 C 312.195312 66.277344 311.425781 65.445312 309.949219 65.445312 C 308.71875 65.445312 307.765625 66.058594 307.027344 66.953125 Z M 308.566406 60.703125 "
       style=" stroke:none;fill-rule:nonzero;fill:rgb(0%,0%,0%);fill-opacity:1;" />
    <path
       id="path89"
       d="M 317.992188 72.480469 C 319.070312 72.480469 319.839844 73.21875 319.839844 74.699219 C 319.839844 76.390625 318.824219 76.914062 318.054688 76.914062 C 317.5 76.914062 316.269531 76.761719 315.714844 75.929688 C 316.359375 75.929688 316.515625 75.46875 316.515625 75.160156 C 316.515625 74.730469 316.175781 74.421875 315.746094 74.421875 C 315.375 74.421875 314.976562 74.667969 314.976562 75.222656 C 314.976562 76.515625 316.390625 77.34375 318.054688 77.34375 C 319.960938 77.34375 321.285156 76.050781 321.285156 74.699219 C 321.285156 73.621094 320.421875 72.542969 318.914062 72.234375 C 320.332031 71.710938 320.851562 70.695312 320.851562 69.835938 C 320.851562 68.757812 319.621094 67.957031 318.085938 67.957031 C 316.578125 67.957031 315.40625 68.695312 315.40625 69.804688 C 315.40625 70.265625 315.714844 70.511719 316.113281 70.511719 C 316.546875 70.511719 316.824219 70.203125 316.824219 69.835938 C 316.824219 69.433594 316.546875 69.125 316.113281 69.097656 C 316.605469 68.511719 317.53125 68.355469 318.054688 68.355469 C 318.667969 68.355469 319.53125 68.664062 319.53125 69.835938 C 319.53125 70.417969 319.347656 71.066406 318.976562 71.464844 C 318.546875 71.988281 318.144531 72.019531 317.46875 72.082031 C 317.128906 72.113281 317.097656 72.113281 317.039062 72.113281 C 317.007812 72.113281 316.882812 72.144531 316.882812 72.296875 C 316.882812 72.480469 317.007812 72.480469 317.253906 72.480469 Z M 317.992188 72.480469 "
       style=" stroke:none;fill-rule:nonzero;fill:rgb(0%,0%,0%);fill-opacity:1;" />
    <path
       id="path91"
       d="M 347.757812 73.390625 L 346.40625 73.390625 L 346.40625 74.316406 C 346.960938 74.285156 348.128906 74.253906 348.867188 74.253906 C 349.636719 74.253906 350.804688 74.285156 351.328125 74.316406 L 351.328125 73.390625 L 349.976562 73.390625 L 349.976562 69.296875 C 349.976562 67.144531 351.667969 66.191406 352.929688 66.191406 C 353.574219 66.191406 354.003906 66.589844 354.003906 68.097656 L 354.003906 73.390625 L 352.652344 73.390625 L 352.652344 74.316406 C 353.175781 74.285156 354.375 74.253906 355.113281 74.253906 C 355.882812 74.253906 357.050781 74.285156 357.574219 74.316406 L 357.574219 73.390625 L 356.222656 73.390625 L 356.222656 68.3125 C 356.222656 66.25 355.175781 65.480469 353.207031 65.480469 C 351.328125 65.480469 350.3125 66.621094 349.882812 67.390625 L 349.882812 60.679688 L 346.40625 60.835938 L 346.40625 61.757812 C 347.605469 61.757812 347.757812 61.757812 347.757812 62.527344 Z M 347.757812 73.390625 "
       style=" stroke:none;fill-rule:nonzero;fill:rgb(0%,0%,0%);fill-opacity:1;" />
    <path
       id="path93"
       d="M 374.265625 69.792969 C 374.574219 69.792969 374.941406 69.792969 374.941406 69.390625 C 374.941406 69.023438 374.574219 69.023438 374.265625 69.023438 L 365.925781 69.023438 C 366.171875 66.375 368.417969 64.496094 371.1875 64.496094 L 374.265625 64.496094 C 374.574219 64.496094 374.941406 64.496094 374.941406 64.097656 C 374.941406 63.695312 374.574219 63.695312 374.265625 63.695312 L 371.15625 63.695312 C 367.804688 63.695312 365.128906 66.25 365.128906 69.390625 C 365.128906 72.5625 367.804688 75.117188 371.15625 75.117188 L 374.265625 75.117188 C 374.574219 75.117188 374.941406 75.117188 374.941406 74.714844 C 374.941406 74.316406 374.574219 74.316406 374.265625 74.316406 L 371.1875 74.316406 C 368.417969 74.316406 366.171875 72.4375 365.925781 69.792969 Z M 374.265625 69.792969 "
       style=" stroke:none;fill-rule:nonzero;fill:rgb(0%,0%,0%);fill-opacity:1;" />
    <path
       id="path95"
       d="M 387.597656 62.1875 C 387.597656 61.417969 388.089844 60.15625 390.246094 60.035156 C 390.335938 60.003906 390.398438 59.910156 390.398438 59.820312 C 390.398438 59.570312 390.246094 59.570312 390.03125 59.570312 C 388.089844 59.570312 386.277344 60.585938 386.277344 62.035156 L 386.277344 66.527344 C 386.277344 67.296875 386.277344 67.914062 385.476562 68.558594 C 384.800781 69.144531 384.0625 69.175781 383.628906 69.175781 C 383.507812 69.207031 383.445312 69.296875 383.445312 69.390625 C 383.445312 69.605469 383.570312 69.605469 383.753906 69.636719 C 385.046875 69.699219 386 70.40625 386.214844 71.359375 C 386.277344 71.578125 386.277344 71.636719 386.277344 72.347656 L 386.277344 76.222656 C 386.277344 77.054688 386.277344 77.671875 387.199219 78.410156 C 387.96875 78.996094 389.261719 79.242188 390.03125 79.242188 C 390.246094 79.242188 390.398438 79.242188 390.398438 78.996094 C 390.398438 78.808594 390.308594 78.808594 390.089844 78.777344 C 388.859375 78.71875 387.90625 78.070312 387.628906 77.085938 C 387.597656 76.902344 387.597656 76.871094 387.597656 76.164062 L 387.597656 72.039062 C 387.597656 71.144531 387.414062 70.808594 386.800781 70.160156 C 386.398438 69.761719 385.816406 69.574219 385.261719 69.390625 C 386.890625 68.960938 387.597656 68.035156 387.597656 66.898438 Z M 387.597656 62.1875 "
       style=" stroke:none;fill-rule:nonzero;fill:rgb(0%,0%,0%);fill-opacity:1;" />
    <path
       id="path97"
       d="M 400.847656 68.035156 C 400.847656 66.46875 400.757812 64.898438 400.078125 63.449219 C 399.1875 61.542969 397.558594 61.234375 396.757812 61.234375 C 395.558594 61.234375 394.140625 61.757812 393.308594 63.574219 C 392.695312 64.929688 392.601562 66.46875 392.601562 68.035156 C 392.601562 69.515625 392.664062 71.269531 393.496094 72.777344 C 394.324219 74.347656 395.773438 74.746094 396.726562 74.746094 C 397.773438 74.746094 399.28125 74.347656 400.140625 72.46875 C 400.757812 71.113281 400.847656 69.574219 400.847656 68.035156 Z M 396.726562 74.316406 C 395.957031 74.316406 394.789062 73.824219 394.449219 71.945312 C 394.234375 70.777344 394.234375 68.960938 394.234375 67.789062 C 394.234375 66.527344 394.234375 65.234375 394.386719 64.1875 C 394.757812 61.851562 396.234375 61.664062 396.726562 61.664062 C 397.371094 61.664062 398.664062 62.035156 399.035156 63.972656 C 399.25 65.082031 399.25 66.558594 399.25 67.789062 C 399.25 69.269531 399.25 70.589844 399.035156 71.851562 C 398.726562 73.730469 397.617188 74.316406 396.726562 74.316406 Z M 396.726562 74.316406 "
       style=" stroke:none;fill-rule:nonzero;fill:rgb(0%,0%,0%);fill-opacity:1;" />
    <path
       id="path99"
       d="M 405.644531 74.285156 C 405.644531 72.992188 405.152344 72.222656 404.382812 72.222656 C 403.738281 72.222656 403.335938 72.714844 403.335938 73.269531 C 403.335938 73.792969 403.738281 74.316406 404.382812 74.316406 C 404.597656 74.316406 404.875 74.222656 405.058594 74.070312 C 405.121094 74.007812 405.152344 74.007812 405.152344 74.007812 C 405.183594 74.007812 405.183594 74.007812 405.183594 74.285156 C 405.183594 75.761719 404.503906 76.933594 403.859375 77.578125 C 403.644531 77.792969 403.644531 77.824219 403.644531 77.886719 C 403.644531 78.039062 403.738281 78.101562 403.828125 78.101562 C 404.042969 78.101562 405.644531 76.59375 405.644531 74.285156 Z M 405.644531 74.285156 "
       style=" stroke:none;fill-rule:nonzero;fill:rgb(0%,0%,0%);fill-opacity:1;" />
    <path
       id="path101"
       d="M 416.148438 61.757812 C 416.148438 61.265625 416.148438 61.234375 415.6875 61.234375 C 414.457031 62.496094 412.734375 62.496094 412.117188 62.496094 L 412.117188 63.113281 C 412.519531 63.113281 413.65625 63.113281 414.671875 62.589844 L 414.671875 72.777344 C 414.671875 73.484375 414.609375 73.699219 412.855469 73.699219 L 412.242188 73.699219 L 412.242188 74.316406 C 412.917969 74.253906 414.609375 74.253906 415.410156 74.253906 C 416.179688 74.253906 417.902344 74.253906 418.578125 74.316406 L 418.578125 73.699219 L 417.964844 73.699219 C 416.179688 73.699219 416.148438 73.484375 416.148438 72.777344 Z M 416.148438 61.757812 "
       style=" stroke:none;fill-rule:nonzero;fill:rgb(0%,0%,0%);fill-opacity:1;" />
    <path
       id="path103"
       d="M 424.417969 76.625 C 424.417969 77.394531 423.894531 78.65625 421.773438 78.777344 C 421.648438 78.808594 421.589844 78.902344 421.589844 78.996094 C 421.589844 79.242188 421.804688 79.242188 421.988281 79.242188 C 423.894531 79.242188 425.710938 78.253906 425.742188 76.777344 L 425.742188 72.285156 C 425.742188 71.515625 425.742188 70.898438 426.511719 70.253906 C 427.1875 69.667969 427.957031 69.636719 428.386719 69.636719 C 428.480469 69.605469 428.542969 69.515625 428.542969 69.390625 C 428.542969 69.207031 428.449219 69.207031 428.234375 69.175781 C 426.941406 69.113281 425.988281 68.40625 425.773438 67.453125 C 425.742188 67.238281 425.742188 67.175781 425.742188 66.46875 L 425.742188 62.589844 C 425.742188 61.757812 425.742188 61.140625 424.789062 60.402344 C 423.988281 59.789062 422.632812 59.570312 421.988281 59.570312 C 421.804688 59.570312 421.589844 59.570312 421.589844 59.820312 C 421.589844 60.003906 421.710938 60.003906 421.894531 60.035156 C 423.125 60.09375 424.109375 60.742188 424.355469 61.726562 C 424.417969 61.910156 424.417969 61.941406 424.417969 62.648438 L 424.417969 66.773438 C 424.417969 67.667969 424.574219 68.007812 425.1875 68.652344 C 425.617188 69.050781 426.171875 69.238281 426.726562 69.390625 C 425.125 69.851562 424.417969 70.777344 424.417969 71.914062 Z M 424.417969 76.625 "
       style=" stroke:none;fill-rule:nonzero;fill:rgb(0%,0%,0%);fill-opacity:1;" />
    <path
       id="path105"
       d="M 433.734375 62.609375 C 434.8125 62.609375 435.582031 63.347656 435.582031 64.824219 C 435.582031 66.515625 434.566406 67.039062 433.796875 67.039062 C 433.242188 67.039062 432.011719 66.886719 431.457031 66.054688 C 432.105469 66.054688 432.257812 65.59375 432.257812 65.285156 C 432.257812 64.855469 431.921875 64.546875 431.488281 64.546875 C 431.121094 64.546875 430.71875 64.792969 430.71875 65.347656 C 430.71875 66.640625 432.136719 67.472656 433.796875 67.472656 C 435.703125 67.472656 437.027344 66.179688 437.027344 64.824219 C 437.027344 63.746094 436.167969 62.667969 434.660156 62.363281 C 436.074219 61.839844 436.597656 60.824219 436.597656 59.960938 C 436.597656 58.882812 435.367188 58.082031 433.828125 58.082031 C 432.320312 58.082031 431.152344 58.824219 431.152344 59.929688 C 431.152344 60.390625 431.457031 60.636719 431.859375 60.636719 C 432.289062 60.636719 432.566406 60.332031 432.566406 59.960938 C 432.566406 59.5625 432.289062 59.253906 431.859375 59.222656 C 432.351562 58.636719 433.273438 58.484375 433.796875 58.484375 C 434.414062 58.484375 435.273438 58.792969 435.273438 59.960938 C 435.273438 60.546875 435.089844 61.191406 434.71875 61.59375 C 434.289062 62.117188 433.890625 62.148438 433.210938 62.207031 C 432.875 62.238281 432.84375 62.238281 432.78125 62.238281 C 432.75 62.238281 432.628906 62.269531 432.628906 62.421875 C 432.628906 62.609375 432.75 62.609375 432.996094 62.609375 Z M 433.734375 62.609375 "
       style=" stroke:none;fill-rule:nonzero;fill:rgb(0%,0%,0%);fill-opacity:1;" />
    <path
       id="path107"
       d="M 81.261719 17.917969 C 81.261719 17.917969 81.261719 17.703125 81.015625 17.703125 C 80.582031 17.703125 79.136719 17.859375 78.613281 17.917969 C 78.460938 17.917969 78.246094 17.949219 78.246094 18.289062 C 78.246094 18.535156 78.429688 18.535156 78.738281 18.535156 C 79.660156 18.535156 79.691406 18.660156 79.691406 18.875 C 79.691406 18.996094 79.539062 19.675781 79.445312 20.074219 L 77.8125 26.476562 C 77.597656 27.460938 77.507812 27.800781 77.507812 28.476562 C 77.507812 30.324219 78.550781 31.554688 80 31.554688 C 82.304688 31.554688 84.738281 28.632812 84.738281 25.800781 C 84.738281 24.015625 83.691406 22.660156 82.121094 22.660156 C 81.230469 22.660156 80.398438 23.246094 79.8125 23.828125 Z M 79.445312 25.335938 C 79.539062 24.90625 79.539062 24.875 79.722656 24.660156 C 80.675781 23.398438 81.566406 23.089844 82.089844 23.089844 C 82.796875 23.089844 83.320312 23.675781 83.320312 24.9375 C 83.320312 26.105469 82.675781 28.355469 82.304688 29.09375 C 81.660156 30.417969 80.769531 31.125 80 31.125 C 79.320312 31.125 78.675781 30.601562 78.675781 29.15625 C 78.675781 28.753906 78.675781 28.386719 78.984375 27.152344 Z M 79.445312 25.335938 "
       style=" stroke:none;fill-rule:nonzero;fill:rgb(100%,0%,0%);fill-opacity:1;" />
    <path
       id="path109"
       d="M 89.3125 25.171875 C 89.3125 25.140625 89.34375 24.957031 89.34375 24.957031 C 89.34375 24.863281 89.3125 24.742188 89.125 24.742188 C 88.851562 24.742188 87.710938 24.863281 87.371094 24.894531 C 87.28125 24.894531 87.066406 24.925781 87.066406 25.203125 C 87.066406 25.386719 87.28125 25.386719 87.433594 25.386719 C 88.082031 25.386719 88.082031 25.511719 88.082031 25.601562 C 88.082031 25.695312 88.050781 25.789062 88.050781 25.910156 L 86.113281 33.667969 C 86.019531 33.914062 86.019531 33.945312 86.019531 33.976562 C 86.019531 34.191406 86.203125 34.40625 86.511719 34.40625 C 86.664062 34.40625 86.910156 34.34375 87.066406 34.066406 C 87.097656 33.976562 87.21875 33.484375 87.28125 33.207031 L 87.621094 31.972656 C 87.648438 31.757812 87.804688 31.234375 87.835938 31.050781 C 87.957031 30.527344 87.957031 30.496094 88.234375 30.066406 C 88.695312 29.390625 89.371094 28.621094 90.449219 28.621094 C 91.21875 28.621094 91.25 29.234375 91.25 29.574219 C 91.25 30.40625 90.664062 31.914062 90.449219 32.496094 C 90.296875 32.898438 90.234375 33.019531 90.234375 33.234375 C 90.234375 33.976562 90.851562 34.40625 91.527344 34.40625 C 92.910156 34.40625 93.527344 32.527344 93.527344 32.3125 C 93.527344 32.128906 93.34375 32.128906 93.28125 32.128906 C 93.097656 32.128906 93.097656 32.21875 93.035156 32.375 C 92.726562 33.484375 92.113281 34.035156 91.589844 34.035156 C 91.28125 34.035156 91.21875 33.851562 91.21875 33.542969 C 91.21875 33.234375 91.3125 33.050781 91.558594 32.4375 C 91.710938 32.003906 92.265625 30.558594 92.265625 29.789062 C 92.265625 29.574219 92.265625 28.988281 91.773438 28.589844 C 91.527344 28.433594 91.125 28.21875 90.480469 28.21875 C 89.496094 28.21875 88.757812 28.773438 88.265625 29.359375 Z M 89.3125 25.171875 "
       style=" stroke:none;fill-rule:nonzero;fill:rgb(100%,0%,0%);fill-opacity:1;" />
    <path
       id="path111"
       d="M 98.097656 29.996094 C 98.097656 29.71875 98.066406 29.71875 97.726562 29.71875 C 97.050781 30.335938 95.941406 30.335938 95.757812 30.335938 L 95.605469 30.335938 L 95.605469 30.765625 L 95.757812 30.765625 C 95.972656 30.765625 96.617188 30.734375 97.203125 30.488281 L 97.203125 35.414062 C 97.203125 35.691406 97.203125 35.8125 96.15625 35.8125 L 95.664062 35.8125 L 95.664062 36.246094 C 96.1875 36.214844 97.082031 36.214844 97.632812 36.214844 C 98.21875 36.214844 99.082031 36.214844 99.632812 36.246094 L 99.632812 35.8125 L 99.140625 35.8125 C 98.097656 35.8125 98.097656 35.691406 98.097656 35.414062 Z M 98.097656 29.996094 "
       style=" stroke:none;fill-rule:nonzero;fill:rgb(100%,0%,0%);fill-opacity:1;" />
    <path
       id="path113"
       d="M 192.902344 17.917969 C 192.902344 17.917969 192.902344 17.703125 192.65625 17.703125 C 192.226562 17.703125 190.777344 17.859375 190.253906 17.917969 C 190.101562 17.917969 189.886719 17.949219 189.886719 18.289062 C 189.886719 18.535156 190.070312 18.535156 190.378906 18.535156 C 191.300781 18.535156 191.332031 18.660156 191.332031 18.875 C 191.332031 18.996094 191.179688 19.675781 191.085938 20.074219 L 189.457031 26.476562 C 189.242188 27.460938 189.148438 27.800781 189.148438 28.476562 C 189.148438 30.324219 190.195312 31.554688 191.640625 31.554688 C 193.949219 31.554688 196.378906 28.632812 196.378906 25.800781 C 196.378906 24.015625 195.332031 22.660156 193.761719 22.660156 C 192.871094 22.660156 192.039062 23.246094 191.457031 23.828125 Z M 191.085938 25.335938 C 191.179688 24.90625 191.179688 24.875 191.363281 24.660156 C 192.316406 23.398438 193.210938 23.089844 193.734375 23.089844 C 194.441406 23.089844 194.964844 23.675781 194.964844 24.9375 C 194.964844 26.105469 194.316406 28.355469 193.949219 29.09375 C 193.300781 30.417969 192.410156 31.125 191.640625 31.125 C 190.964844 31.125 190.316406 30.601562 190.316406 29.15625 C 190.316406 28.753906 190.316406 28.386719 190.625 27.152344 Z M 191.085938 25.335938 "
       style=" stroke:none;fill-rule:nonzero;fill:rgb(100%,0%,0%);fill-opacity:1;" />
    <path
       id="path115"
       d="M 200.953125 25.171875 C 200.953125 25.140625 200.984375 24.957031 200.984375 24.957031 C 200.984375 24.863281 200.953125 24.742188 200.769531 24.742188 C 200.492188 24.742188 199.351562 24.863281 199.015625 24.894531 C 198.921875 24.894531 198.707031 24.925781 198.707031 25.203125 C 198.707031 25.386719 198.921875 25.386719 199.078125 25.386719 C 199.722656 25.386719 199.722656 25.511719 199.722656 25.601562 C 199.722656 25.695312 199.691406 25.789062 199.691406 25.910156 L 197.753906 33.667969 C 197.660156 33.914062 197.660156 33.945312 197.660156 33.976562 C 197.660156 34.191406 197.84375 34.40625 198.152344 34.40625 C 198.308594 34.40625 198.554688 34.34375 198.707031 34.066406 C 198.738281 33.976562 198.859375 33.484375 198.921875 33.207031 L 199.261719 31.972656 C 199.292969 31.757812 199.445312 31.234375 199.476562 31.050781 C 199.597656 30.527344 199.597656 30.496094 199.875 30.066406 C 200.335938 29.390625 201.015625 28.621094 202.089844 28.621094 C 202.859375 28.621094 202.890625 29.234375 202.890625 29.574219 C 202.890625 30.40625 202.308594 31.914062 202.089844 32.496094 C 201.9375 32.898438 201.875 33.019531 201.875 33.234375 C 201.875 33.976562 202.492188 34.40625 203.167969 34.40625 C 204.554688 34.40625 205.167969 32.527344 205.167969 32.3125 C 205.167969 32.128906 204.984375 32.128906 204.921875 32.128906 C 204.738281 32.128906 204.738281 32.21875 204.675781 32.375 C 204.367188 33.484375 203.753906 34.035156 203.230469 34.035156 C 202.921875 34.035156 202.859375 33.851562 202.859375 33.542969 C 202.859375 33.234375 202.953125 33.050781 203.199219 32.4375 C 203.351562 32.003906 203.90625 30.558594 203.90625 29.789062 C 203.90625 29.574219 203.90625 28.988281 203.414062 28.589844 C 203.167969 28.433594 202.769531 28.21875 202.121094 28.21875 C 201.136719 28.21875 200.398438 28.773438 199.90625 29.359375 Z M 200.953125 25.171875 "
       style=" stroke:none;fill-rule:nonzero;fill:rgb(100%,0%,0%);fill-opacity:1;" />
    <path
       id="path117"
       d="M 211.613281 34.335938 L 211.183594 34.335938 C 211.183594 34.519531 211.0625 35.136719 210.90625 35.230469 C 210.84375 35.289062 210.015625 35.289062 209.859375 35.289062 L 207.953125 35.289062 C 208.597656 34.828125 209.308594 34.273438 209.890625 33.875 C 210.785156 33.257812 211.613281 32.707031 211.613281 31.660156 C 211.613281 30.398438 210.414062 29.71875 209.03125 29.71875 C 207.707031 29.71875 206.722656 30.457031 206.722656 31.441406 C 206.722656 31.9375 207.152344 32.027344 207.308594 32.027344 C 207.554688 32.027344 207.859375 31.84375 207.859375 31.441406 C 207.859375 31.105469 207.613281 30.890625 207.308594 30.890625 C 207.582031 30.425781 208.167969 30.148438 208.816406 30.148438 C 209.769531 30.148438 210.570312 30.703125 210.570312 31.660156 C 210.570312 32.488281 209.984375 33.136719 209.246094 33.75 L 206.84375 35.78125 C 206.753906 35.875 206.722656 35.875 206.722656 35.9375 L 206.722656 36.246094 L 211.277344 36.246094 Z M 211.613281 34.335938 "
       style=" stroke:none;fill-rule:nonzero;fill:rgb(100%,0%,0%);fill-opacity:1;" />
    <path
       id="path119"
       d="M 304.542969 17.917969 C 304.542969 17.917969 304.542969 17.703125 304.296875 17.703125 C 303.867188 17.703125 302.421875 17.859375 301.898438 17.917969 C 301.742188 17.917969 301.527344 17.949219 301.527344 18.289062 C 301.527344 18.535156 301.710938 18.535156 302.019531 18.535156 C 302.945312 18.535156 302.972656 18.660156 302.972656 18.875 C 302.972656 18.996094 302.820312 19.675781 302.726562 20.074219 L 301.097656 26.476562 C 300.882812 27.460938 300.789062 27.800781 300.789062 28.476562 C 300.789062 30.324219 301.835938 31.554688 303.28125 31.554688 C 305.589844 31.554688 308.019531 28.632812 308.019531 25.800781 C 308.019531 24.015625 306.972656 22.660156 305.40625 22.660156 C 304.511719 22.660156 303.683594 23.246094 303.097656 23.828125 Z M 302.726562 25.335938 C 302.820312 24.90625 302.820312 24.875 303.003906 24.660156 C 303.957031 23.398438 304.851562 23.089844 305.375 23.089844 C 306.082031 23.089844 306.605469 23.675781 306.605469 24.9375 C 306.605469 26.105469 305.957031 28.355469 305.589844 29.09375 C 304.945312 30.417969 304.050781 31.125 303.28125 31.125 C 302.605469 31.125 301.957031 30.601562 301.957031 29.15625 C 301.957031 28.753906 301.957031 28.386719 302.265625 27.152344 Z M 302.726562 25.335938 "
       style=" stroke:none;fill-rule:nonzero;fill:rgb(100%,0%,0%);fill-opacity:1;" />
    <path
       id="path121"
       d="M 312.59375 25.171875 C 312.59375 25.140625 312.625 24.957031 312.625 24.957031 C 312.625 24.863281 312.59375 24.742188 312.410156 24.742188 C 312.132812 24.742188 310.996094 24.863281 310.65625 24.894531 C 310.5625 24.894531 310.347656 24.925781 310.347656 25.203125 C 310.347656 25.386719 310.5625 25.386719 310.71875 25.386719 C 311.363281 25.386719 311.363281 25.511719 311.363281 25.601562 C 311.363281 25.695312 311.332031 25.789062 311.332031 25.910156 L 309.394531 33.667969 C 309.300781 33.914062 309.300781 33.945312 309.300781 33.976562 C 309.300781 34.191406 309.488281 34.40625 309.792969 34.40625 C 309.949219 34.40625 310.195312 34.34375 310.347656 34.066406 C 310.378906 33.976562 310.503906 33.484375 310.5625 33.207031 L 310.902344 31.972656 C 310.933594 31.757812 311.085938 31.234375 311.117188 31.050781 C 311.242188 30.527344 311.242188 30.496094 311.519531 30.066406 C 311.980469 29.390625 312.65625 28.621094 313.734375 28.621094 C 314.503906 28.621094 314.53125 29.234375 314.53125 29.574219 C 314.53125 30.40625 313.949219 31.914062 313.734375 32.496094 C 313.578125 32.898438 313.519531 33.019531 313.519531 33.234375 C 313.519531 33.976562 314.132812 34.40625 314.808594 34.40625 C 316.195312 34.40625 316.808594 32.527344 316.808594 32.3125 C 316.808594 32.128906 316.625 32.128906 316.5625 32.128906 C 316.378906 32.128906 316.378906 32.21875 316.316406 32.375 C 316.011719 33.484375 315.394531 34.035156 314.871094 34.035156 C 314.5625 34.035156 314.503906 33.851562 314.503906 33.542969 C 314.503906 33.234375 314.59375 33.050781 314.839844 32.4375 C 314.996094 32.003906 315.546875 30.558594 315.546875 29.789062 C 315.546875 29.574219 315.546875 28.988281 315.054688 28.589844 C 314.808594 28.433594 314.410156 28.21875 313.765625 28.21875 C 312.78125 28.21875 312.039062 28.773438 311.546875 29.359375 Z M 312.59375 25.171875 "
       style=" stroke:none;fill-rule:nonzero;fill:rgb(100%,0%,0%);fill-opacity:1;" />
    <path
       id="path123"
       d="M 320.703125 32.980469 C 321.625 32.980469 322.210938 33.566406 322.210938 34.519531 C 322.210938 35.535156 321.59375 36.058594 320.734375 36.058594 C 320.609375 36.058594 319.441406 36.058594 318.949219 35.535156 C 319.347656 35.476562 319.472656 35.199219 319.472656 34.953125 C 319.472656 34.582031 319.195312 34.335938 318.855469 34.335938 C 318.546875 34.335938 318.273438 34.550781 318.273438 34.984375 C 318.273438 36 319.410156 36.460938 320.765625 36.460938 C 322.363281 36.460938 323.347656 35.476562 323.347656 34.519531 C 323.347656 33.722656 322.640625 33.042969 321.53125 32.796875 C 322.703125 32.398438 323.011719 31.660156 323.011719 31.105469 C 323.011719 30.304688 322.023438 29.71875 320.792969 29.71875 C 319.5625 29.71875 318.609375 30.210938 318.609375 31.105469 C 318.609375 31.566406 318.980469 31.6875 319.164062 31.6875 C 319.441406 31.6875 319.71875 31.472656 319.71875 31.105469 C 319.71875 30.890625 319.59375 30.613281 319.257812 30.550781 C 319.65625 30.121094 320.546875 30.089844 320.765625 30.089844 C 321.472656 30.089844 321.964844 30.425781 321.964844 31.105469 C 321.964844 31.6875 321.59375 32.582031 320.578125 32.644531 C 320.300781 32.644531 320.273438 32.644531 319.996094 32.675781 C 319.902344 32.675781 319.777344 32.675781 319.777344 32.828125 C 319.777344 32.980469 319.871094 32.980469 320.054688 32.980469 Z M 320.703125 32.980469 "
       style=" stroke:none;fill-rule:nonzero;fill:rgb(100%,0%,0%);fill-opacity:1;" />
    <path
       id="path125"
       d="M 398.488281 121.082031 C 398.980469 120.222656 399.441406 119.515625 400.703125 119.421875 C 400.855469 119.390625 401.070312 119.390625 401.070312 119.019531 C 401.070312 118.960938 400.980469 118.804688 400.824219 118.804688 C 400.363281 118.804688 399.808594 118.867188 399.316406 118.867188 C 398.640625 118.867188 397.933594 118.804688 397.257812 118.804688 C 397.164062 118.804688 396.886719 118.804688 396.886719 119.175781 C 396.886719 119.390625 397.070312 119.421875 397.195312 119.421875 C 397.65625 119.453125 398.363281 119.605469 398.363281 120.191406 C 398.363281 120.40625 398.242188 120.558594 398.085938 120.835938 L 392.792969 130.070312 L 392.054688 120.34375 C 392.054688 119.945312 392.023438 119.453125 393.441406 119.421875 C 393.777344 119.421875 393.964844 119.421875 393.964844 119.019531 C 393.964844 118.835938 393.75 118.804688 393.6875 118.804688 C 392.886719 118.804688 392.054688 118.867188 391.285156 118.867188 C 390.824219 118.867188 389.6875 118.804688 389.226562 118.804688 C 389.101562 118.804688 388.855469 118.804688 388.855469 119.207031 C 388.855469 119.421875 389.039062 119.421875 389.316406 119.421875 C 390.179688 119.421875 390.332031 119.542969 390.363281 119.914062 L 390.488281 121.421875 L 385.503906 130.070312 L 384.765625 120.128906 C 384.765625 119.882812 384.765625 119.453125 386.273438 119.421875 C 386.457031 119.421875 386.671875 119.421875 386.671875 119.019531 C 386.671875 118.804688 386.425781 118.804688 386.394531 118.804688 C 385.625 118.804688 384.792969 118.867188 383.996094 118.867188 C 383.285156 118.867188 382.578125 118.804688 381.933594 118.804688 C 381.808594 118.804688 381.5625 118.804688 381.5625 119.175781 C 381.5625 119.421875 381.75 119.421875 382.054688 119.421875 C 383.039062 119.421875 383.070312 119.605469 383.101562 120.160156 L 383.996094 132.132812 C 383.996094 132.503906 384.023438 132.65625 384.300781 132.65625 C 384.519531 132.65625 384.578125 132.535156 384.765625 132.257812 L 390.546875 122.222656 L 391.257812 132.132812 C 391.316406 132.566406 391.347656 132.65625 391.5625 132.65625 C 391.839844 132.65625 391.964844 132.472656 392.054688 132.289062 Z M 398.488281 121.082031 "
       style=" stroke:none;fill-rule:nonzero;fill:rgb(100%,0%,0%);fill-opacity:1;" />
    <path
       id="path127"
       d="M 417.957031 127.703125 C 418.265625 127.703125 418.636719 127.703125 418.636719 127.300781 C 418.636719 126.933594 418.265625 126.933594 417.957031 126.933594 L 409.621094 126.933594 C 409.867188 124.285156 412.113281 122.40625 414.882812 122.40625 L 417.957031 122.40625 C 418.265625 122.40625 418.636719 122.40625 418.636719 122.007812 C 418.636719 121.605469 418.265625 121.605469 417.957031 121.605469 L 414.851562 121.605469 C 411.496094 121.605469 408.820312 124.160156 408.820312 127.300781 C 408.820312 130.472656 411.496094 133.027344 414.851562 133.027344 L 417.957031 133.027344 C 418.265625 133.027344 418.636719 133.027344 418.636719 132.625 C 418.636719 132.226562 418.265625 132.226562 417.957031 132.226562 L 414.882812 132.226562 C 412.113281 132.226562 409.867188 130.347656 409.621094 127.703125 Z M 417.957031 127.703125 "
       style=" stroke:none;fill-rule:nonzero;fill:rgb(100%,0%,0%);fill-opacity:1;" />
    <path
       id="path129"
       d="M 430.980469 126.070312 L 431.6875 126.070312 L 434.640625 130.625 C 434.824219 130.933594 435.289062 131.703125 435.503906 131.980469 C 435.65625 132.226562 435.71875 132.226562 436.148438 132.226562 L 438.855469 132.226562 C 439.226562 132.226562 439.535156 132.226562 439.535156 131.886719 C 439.535156 131.703125 439.410156 131.578125 439.226562 131.550781 C 438.488281 131.394531 437.535156 130.070312 437.070312 129.457031 C 436.917969 129.269531 435.933594 127.976562 434.640625 125.855469 C 436.363281 125.515625 438.054688 124.777344 438.054688 122.4375 C 438.054688 119.730469 435.195312 118.773438 432.855469 118.773438 L 426.703125 118.773438 C 426.332031 118.773438 426.027344 118.773438 426.027344 119.113281 C 426.027344 119.453125 426.394531 119.453125 426.550781 119.453125 C 427.6875 119.453125 427.78125 119.605469 427.78125 120.589844 L 427.78125 130.410156 C 427.78125 131.394531 427.6875 131.550781 426.550781 131.550781 C 426.394531 131.550781 426.027344 131.550781 426.027344 131.886719 C 426.027344 132.226562 426.332031 132.226562 426.703125 132.226562 L 432.085938 132.226562 C 432.425781 132.226562 432.734375 132.226562 432.734375 131.886719 C 432.734375 131.550781 432.394531 131.550781 432.179688 131.550781 C 431.070312 131.550781 430.980469 131.394531 430.980469 130.410156 Z M 434.765625 125.085938 C 435.316406 124.378906 435.378906 123.332031 435.378906 122.46875 C 435.378906 121.515625 435.257812 120.46875 434.640625 119.667969 C 435.441406 119.851562 437.378906 120.46875 437.378906 122.4375 C 437.378906 123.730469 436.796875 124.714844 434.765625 125.085938 Z M 430.980469 120.53125 C 430.980469 120.097656 430.980469 119.453125 432.210938 119.453125 C 433.871094 119.453125 434.703125 120.160156 434.703125 122.46875 C 434.703125 124.992188 434.085938 125.363281 430.980469 125.363281 Z M 428.304688 131.550781 C 428.457031 131.179688 428.457031 130.625 428.457031 130.472656 L 428.457031 120.53125 C 428.457031 120.34375 428.457031 119.820312 428.304688 119.453125 L 430.550781 119.453125 C 430.304688 119.789062 430.304688 120.160156 430.304688 120.46875 L 430.304688 130.472656 C 430.304688 130.65625 430.304688 131.179688 430.457031 131.550781 Z M 432.488281 126.070312 C 432.640625 126.039062 432.703125 126.007812 432.855469 126.007812 C 433.164062 126.007812 433.59375 125.976562 433.871094 125.945312 C 434.179688 126.410156 436.304688 129.917969 437.933594 131.550781 L 436.027344 131.550781 Z M 432.488281 126.070312 "
       style=" stroke:none;fill-rule:nonzero;fill:rgb(100%,0%,0%);fill-opacity:1;" />
    <path
       id="path131"
       d="M 443.644531 120.519531 C 444.71875 120.519531 445.488281 121.257812 445.488281 122.734375 C 445.488281 124.425781 444.472656 124.949219 443.703125 124.949219 C 443.148438 124.949219 441.917969 124.796875 441.367188 123.964844 C 442.011719 123.964844 442.164062 123.503906 442.164062 123.195312 C 442.164062 122.765625 441.828125 122.457031 441.394531 122.457031 C 441.027344 122.457031 440.628906 122.703125 440.628906 123.257812 C 440.628906 124.550781 442.042969 125.382812 443.703125 125.382812 C 445.613281 125.382812 446.933594 124.089844 446.933594 122.734375 C 446.933594 121.65625 446.074219 120.578125 444.566406 120.273438 C 445.980469 119.75 446.503906 118.734375 446.503906 117.871094 C 446.503906 116.792969 445.273438 115.992188 443.734375 115.992188 C 442.226562 115.992188 441.058594 116.734375 441.058594 117.839844 C 441.058594 118.300781 441.367188 118.546875 441.765625 118.546875 C 442.195312 118.546875 442.472656 118.242188 442.472656 117.871094 C 442.472656 117.472656 442.195312 117.164062 441.765625 117.132812 C 442.257812 116.546875 443.179688 116.394531 443.703125 116.394531 C 444.320312 116.394531 445.179688 116.703125 445.179688 117.871094 C 445.179688 118.457031 444.996094 119.101562 444.628906 119.503906 C 444.195312 120.027344 443.796875 120.058594 443.121094 120.117188 C 442.78125 120.148438 442.75 120.148438 442.6875 120.148438 C 442.65625 120.148438 442.535156 120.179688 442.535156 120.332031 C 442.535156 120.519531 442.65625 120.519531 442.902344 120.519531 Z M 443.644531 120.519531 "
       style=" stroke:none;fill-rule:nonzero;fill:rgb(100%,0%,0%);fill-opacity:1;" />
    <path
       id="path133"
       d="M 457.308594 118.671875 C 457.460938 118.519531 457.492188 118.425781 457.492188 118.332031 C 457.492188 118.117188 457.339844 117.996094 457.183594 117.996094 C 457.03125 117.996094 457 118.023438 456.847656 118.210938 L 453.832031 121.195312 L 450.816406 118.179688 C 450.664062 118.054688 450.632812 117.996094 450.507812 117.996094 C 450.292969 117.996094 450.140625 118.148438 450.140625 118.332031 C 450.140625 118.457031 450.199219 118.488281 450.355469 118.671875 L 453.339844 121.65625 L 450.355469 124.644531 C 450.171875 124.859375 450.140625 124.921875 450.140625 124.980469 C 450.140625 125.195312 450.292969 125.351562 450.507812 125.351562 C 450.632812 125.351562 450.664062 125.289062 450.816406 125.136719 L 453.832031 122.148438 L 456.96875 125.257812 C 457.03125 125.320312 457.09375 125.351562 457.183594 125.351562 C 457.339844 125.351562 457.492188 125.226562 457.492188 124.980469 C 457.492188 124.890625 457.492188 124.859375 457.429688 124.828125 C 457.402344 124.765625 454.753906 122.089844 454.324219 121.6875 Z M 457.308594 118.671875 "
       style=" stroke:none;fill-rule:nonzero;fill:rgb(100%,0%,0%);fill-opacity:1;" />
    <path
       id="path135"
       d="M 467.234375 122.859375 L 467.234375 122.367188 L 465.695312 122.367188 L 465.695312 116.238281 C 465.695312 115.964844 465.695312 115.839844 465.417969 115.839844 C 465.234375 115.839844 465.171875 115.839844 465.046875 116.054688 L 460.492188 122.367188 L 460.492188 122.859375 L 464.554688 122.859375 L 464.554688 123.964844 C 464.554688 124.457031 464.554688 124.613281 463.417969 124.613281 L 463.046875 124.613281 L 463.046875 125.105469 C 463.753906 125.074219 464.617188 125.042969 465.109375 125.042969 C 465.632812 125.042969 466.492188 125.074219 467.203125 125.105469 L 467.203125 124.613281 L 466.832031 124.613281 C 465.695312 124.613281 465.695312 124.457031 465.695312 123.964844 L 465.695312 122.859375 Z M 464.648438 117.347656 L 464.648438 122.367188 L 461.015625 122.367188 Z M 464.648438 117.347656 "
       style=" stroke:none;fill-rule:nonzero;fill:rgb(100%,0%,0%);fill-opacity:1;" />
    <path
       id="path137"
       transform="matrix(1.969231,0,0,-1.969937,33.884554,180.463932)"
       d="M 4.543641 9.089296 L 23.800843 47.605762 "
       style="fill:none;stroke-width:0.79701;stroke-linecap:butt;stroke-linejoin:miter;stroke:rgb(0%,0%,0%);stroke-opacity:1;stroke-miterlimit:10;" />
    <path
       id="path139"
       d="M 43.441406 125.027344 C 43.074219 124.75 42.519531 124.257812 42.398438 124.226562 C 42.089844 124.074219 41.8125 124.226562 41.6875 124.472656 C 41.566406 124.6875 41.566406 125.058594 41.84375 125.394531 C 41.933594 125.488281 44.890625 127.980469 45.289062 128.351562 C 45.75 128.75 46.027344 128.90625 46.367188 129.089844 C 46.550781 129.183594 46.582031 129.183594 46.671875 129.210938 C 47.414062 130.105469 47.71875 130.90625 47.351562 131.582031 C 46.671875 133 45.382812 132.351562 45.074219 132.199219 C 44.519531 131.921875 43.875 131.492188 42.089844 129.550781 C 41.6875 129.121094 41.472656 128.875 41.105469 128.691406 C 40.335938 128.320312 39.414062 128.566406 38.980469 129.429688 C 38.152344 131.089844 40.367188 133 40.488281 133.089844 C 40.703125 133.183594 40.796875 133.03125 40.828125 133 C 40.917969 132.785156 40.859375 132.753906 40.613281 132.535156 C 39.226562 131.246094 39.011719 130.289062 39.320312 129.675781 C 39.414062 129.488281 39.566406 129.242188 40.121094 129.519531 C 40.550781 129.734375 40.949219 130.199219 41.195312 130.476562 C 42.859375 132.261719 43.566406 132.84375 44.273438 133.183594 C 45.875 133.984375 47.042969 133.152344 47.71875 131.828125 C 47.84375 131.519531 48.273438 130.691406 47.382812 129.398438 C 48.765625 129.488281 49.441406 128.320312 49.71875 127.796875 C 50.367188 126.472656 49.660156 125.148438 48.828125 124.164062 C 47.78125 122.902344 45.6875 121.148438 44.859375 120.75 C 43.90625 120.253906 43.414062 120.59375 43.257812 120.902344 C 43.042969 121.332031 43.257812 121.980469 43.628906 122.195312 C 43.875 122.289062 44.027344 122.257812 44.242188 122.164062 C 44.550781 122.070312 45.195312 121.886719 46.058594 122.316406 C 46.671875 122.59375 48.121094 123.949219 48.796875 124.871094 C 49.503906 125.765625 49.8125 126.71875 49.382812 127.582031 C 48.949219 128.382812 48.210938 128.597656 47.195312 128.105469 C 46.703125 127.859375 46.242188 127.457031 46.027344 127.242188 Z M 43.441406 125.027344 "
       style=" stroke:none;fill-rule:nonzero;fill:rgb(100%,0%,0%);fill-opacity:1;" />
    <path
       id="path141"
       d="M 48.480469 116.882812 C 48.140625 116.730469 48.140625 116.730469 47.957031 117.066406 C 48.324219 118.238281 47.769531 119.347656 47.523438 119.839844 L 47.988281 120.054688 C 48.109375 119.777344 48.539062 118.945312 48.539062 118.144531 L 54.785156 121.253906 C 55.1875 121.46875 55.371094 121.5625 54.753906 122.761719 L 54.507812 123.222656 L 54.941406 123.441406 C 55.0625 123.222656 55.742188 121.683594 55.988281 121.253906 C 56.171875 120.855469 57.003906 119.347656 57.125 119.070312 L 56.695312 118.855469 L 56.480469 119.316406 C 55.863281 120.578125 55.679688 120.484375 55.277344 120.269531 Z M 48.480469 116.882812 "
       style=" stroke:none;fill-rule:nonzero;fill:rgb(100%,0%,0%);fill-opacity:1;" />
    <path
       id="path143"
       d="M 58.835938 115.210938 C 59.484375 115.550781 60.222656 116.074219 60.558594 117.273438 C 60.621094 117.335938 60.652344 117.429688 60.714844 117.457031 C 60.777344 117.488281 60.929688 117.398438 60.960938 117.367188 C 61.054688 117.152344 60.589844 115.613281 59.113281 114.902344 C 58.375 114.535156 57.636719 114.535156 57.359375 115.121094 C 57.144531 115.488281 57.300781 115.949219 57.699219 116.136719 C 58.066406 116.351562 58.558594 116.226562 58.777344 115.796875 C 58.929688 115.488281 58.835938 115.210938 58.835938 115.210938 Z M 58.835938 115.210938 "
       style=" stroke:none;fill-rule:nonzero;fill:rgb(100%,0%,0%);fill-opacity:1;" />
    <path
       id="path145"
       d="M 54.058594 105.71875 C 53.722656 105.5625 53.722656 105.5625 53.535156 105.902344 C 53.90625 107.074219 53.351562 108.179688 53.105469 108.671875 L 53.566406 108.886719 C 53.691406 108.613281 54.121094 107.78125 54.121094 106.980469 L 60.367188 110.089844 C 60.765625 110.304688 60.953125 110.398438 60.335938 111.597656 L 60.089844 112.058594 L 60.519531 112.273438 C 60.644531 112.058594 61.320312 110.519531 61.566406 110.089844 C 61.75 109.6875 62.582031 108.179688 62.707031 107.902344 L 62.273438 107.6875 L 62.058594 108.148438 C 61.445312 109.410156 61.257812 109.320312 60.859375 109.105469 Z M 54.058594 105.71875 "
       style=" stroke:none;fill-rule:nonzero;fill:rgb(100%,0%,0%);fill-opacity:1;" />
    <path
       id="path147"
       transform="matrix(1.969231,0,0,-1.969937,33.884554,180.463932)"
       d="M 8.481171 5.656841 L 76.557801 51.038217 "
       style="fill:none;stroke-width:0.79701;stroke-linecap:butt;stroke-linejoin:miter;stroke:rgb(0%,0%,0%);stroke-opacity:1;stroke-miterlimit:10;" />
    <path
       id="path149"
       transform="matrix(1.969231,0,0,-1.969937,33.884554,180.463932)"
       d="M 9.469025 3.78892 L 132.266419 52.906139 "
       style="fill:none;stroke-width:0.79701;stroke-linecap:butt;stroke-linejoin:miter;stroke:rgb(0%,0%,0%);stroke-opacity:1;stroke-miterlimit:10;" />
    <path
       id="path151"
       transform="matrix(1.969231,0,0,-1.969937,33.884554,180.463932)"
       d="M 52.149079 9.089296 L 32.889893 47.605762 "
       style="fill:none;stroke-width:0.79701;stroke-linecap:butt;stroke-linejoin:miter;stroke:rgb(0%,0%,0%);stroke-opacity:1;stroke-miterlimit:10;" />
    <path
       id="path153"
       transform="matrix(1.969231,0,0,-1.969937,33.884554,180.463932)"
       d="M 61.238129 9.089296 L 80.495332 47.605762 "
       style="fill:none;stroke-width:0.79701;stroke-linecap:butt;stroke-linejoin:miter;stroke:rgb(0%,0%,0%);stroke-opacity:1;stroke-miterlimit:10;" />
    <path
       id="path155"
       transform="matrix(1.969231,0,0,-1.969937,33.884554,180.463932)"
       d="M 65.17566 5.656841 L 133.254273 51.038217 "
       style="fill:none;stroke-width:0.79701;stroke-linecap:butt;stroke-linejoin:miter;stroke:rgb(0%,0%,0%);stroke-opacity:1;stroke-miterlimit:10;" />
    <path
       id="path157"
       transform="matrix(1.969231,0,0,-1.969937,33.884554,180.463932)"
       d="M 104.906037 5.656841 L 36.827424 51.038217 "
       style="fill:none;stroke-width:0.79701;stroke-linecap:butt;stroke-linejoin:miter;stroke:rgb(0%,0%,0%);stroke-opacity:1;stroke-miterlimit:10;" />
    <path
       id="path159"
       transform="matrix(1.969231,0,0,-1.969937,33.884554,180.463932)"
       d="M 108.843568 9.089296 L 89.586365 47.605762 "
       style="fill:none;stroke-width:0.79701;stroke-linecap:butt;stroke-linejoin:miter;stroke:rgb(0%,0%,0%);stroke-opacity:1;stroke-miterlimit:10;" />
    <path
       id="path161"
       transform="matrix(1.969231,0,0,-1.969937,33.884554,180.463932)"
       d="M 117.934602 9.089296 L 137.191804 47.605762 "
       style="fill:none;stroke-width:0.79701;stroke-linecap:butt;stroke-linejoin:miter;stroke:rgb(0%,0%,0%);stroke-opacity:1;stroke-miterlimit:10;" />
    <path
       id="path163"
       transform="matrix(1.969231,0,0,-1.969937,33.884554,180.463932)"
       d="M 160.612672 3.78892 L 37.813294 52.906139 "
       style="fill:none;stroke-width:0.79701;stroke-linecap:butt;stroke-linejoin:miter;stroke:rgb(0%,0%,0%);stroke-opacity:1;stroke-miterlimit:10;" />
    <path
       id="path165"
       transform="matrix(1.969231,0,0,-1.969937,33.884554,180.463932)"
       d="M 161.598542 5.656841 L 93.523896 51.038217 "
       style="fill:none;stroke-width:0.79701;stroke-linecap:butt;stroke-linejoin:miter;stroke:rgb(0%,0%,0%);stroke-opacity:1;stroke-miterlimit:10;" />
    <path
       id="path167"
       transform="matrix(1.969231,0,0,-1.969937,33.884554,180.463932)"
       d="M 165.536073 9.089296 L 146.276887 47.605762 "
       style="fill:none;stroke-width:0.79701;stroke-linecap:butt;stroke-linejoin:miter;stroke:rgb(0%,0%,0%);stroke-opacity:1;stroke-miterlimit:10;" />
    <path
       id="path169"
       d="M 351.574219 109.671875 C 352.003906 109.578125 352.742188 109.394531 352.867188 109.363281 C 353.175781 109.210938 353.207031 108.871094 353.082031 108.625 C 352.960938 108.410156 352.652344 108.164062 352.25 108.195312 C 352.097656 108.222656 348.34375 109.054688 347.820312 109.179688 C 347.238281 109.332031 346.898438 109.425781 346.558594 109.609375 C 346.375 109.703125 346.34375 109.703125 346.3125 109.792969 C 345.144531 109.824219 344.34375 109.578125 343.976562 108.902344 C 343.296875 107.484375 344.589844 106.839844 344.898438 106.683594 C 345.453125 106.410156 346.160156 106.160156 348.742188 105.886719 C 349.390625 105.824219 349.667969 105.824219 350.035156 105.640625 C 350.804688 105.269531 351.175781 104.347656 350.742188 103.484375 C 349.914062 101.820312 347.019531 102.4375 346.898438 102.53125 C 346.683594 102.621094 346.773438 102.777344 346.804688 102.808594 C 346.898438 103.023438 346.960938 102.992188 347.265625 102.898438 C 349.144531 102.589844 350.035156 102.992188 350.34375 103.605469 C 350.4375 103.792969 350.527344 104.101562 349.976562 104.375 C 349.542969 104.59375 348.960938 104.625 348.589844 104.652344 C 346.128906 104.898438 345.238281 105.117188 344.527344 105.453125 C 342.929688 106.253906 342.929688 107.699219 343.605469 109.023438 C 343.730469 109.332031 344.160156 110.164062 345.730469 110.226562 C 344.835938 111.242188 345.328125 112.535156 345.605469 113.058594 C 346.25 114.378906 347.757812 114.597656 349.019531 114.535156 C 350.683594 114.441406 353.328125 113.796875 354.160156 113.394531 C 355.113281 112.902344 355.175781 112.316406 355.019531 112.011719 C 354.804688 111.578125 354.097656 111.363281 353.730469 111.578125 C 353.484375 111.671875 353.453125 111.824219 353.359375 112.042969 C 353.296875 112.316406 353.082031 112.996094 352.222656 113.425781 C 351.605469 113.703125 349.667969 114.074219 348.496094 114.074219 C 347.359375 114.101562 346.4375 113.765625 346.003906 112.902344 C 345.574219 112.101562 345.882812 111.332031 346.898438 110.839844 C 347.390625 110.59375 347.976562 110.441406 348.25 110.410156 Z M 351.574219 109.671875 "
       style=" stroke:none;fill-rule:nonzero;fill:rgb(100%,0%,0%);fill-opacity:1;" />
    <path
       id="path171"
       d="M 350.484375 123.890625 L 350.945312 123.675781 L 350.238281 122.292969 L 355.714844 119.550781 C 355.960938 119.429688 356.054688 119.367188 355.933594 119.121094 C 355.839844 118.96875 355.839844 118.90625 355.59375 118.9375 L 347.933594 117.644531 L 347.46875 117.859375 L 349.285156 121.492188 L 348.300781 121.984375 C 347.871094 122.230469 347.714844 122.292969 347.191406 121.277344 L 347.039062 120.9375 L 346.609375 121.152344 C 346.945312 121.800781 347.378906 122.539062 347.59375 122.96875 C 347.808594 123.460938 348.179688 124.261719 348.453125 124.878906 L 348.886719 124.660156 L 348.730469 124.324219 C 348.207031 123.308594 348.363281 123.246094 348.792969 123 L 349.777344 122.507812 Z M 354.238281 119.121094 L 349.777344 121.367188 L 348.148438 118.105469 Z M 354.238281 119.121094 "
       style=" stroke:none;fill-rule:nonzero;fill:rgb(100%,0%,0%);fill-opacity:1;" />
    <path
       id="path173"
       d="M 350.199219 127.90625 C 349.550781 128.242188 348.691406 128.519531 347.492188 128.058594 C 347.429688 128.058594 347.335938 128.027344 347.277344 128.058594 C 347.214844 128.089844 347.183594 128.242188 347.214844 128.273438 C 347.304688 128.488281 348.8125 129.042969 350.292969 128.335938 C 351.03125 127.964844 351.460938 127.351562 351.183594 126.765625 C 350.96875 126.398438 350.507812 126.242188 350.105469 126.425781 C 349.738281 126.644531 349.550781 127.074219 349.769531 127.503906 C 349.921875 127.8125 350.199219 127.90625 350.199219 127.90625 Z M 350.199219 127.90625 "
       style=" stroke:none;fill-rule:nonzero;fill:rgb(100%,0%,0%);fill-opacity:1;" />
    <path
       id="path175"
       d="M 356.589844 130.875 C 357.050781 131.828125 356.742188 132.875 355.421875 133.550781 C 353.914062 134.289062 352.988281 133.613281 352.621094 132.933594 C 352.375 132.441406 352.003906 131.273438 352.46875 130.378906 C 352.773438 130.964844 353.265625 130.902344 353.511719 130.75 C 353.914062 130.566406 354.035156 130.132812 353.851562 129.765625 C 353.699219 129.425781 353.296875 129.148438 352.804688 129.394531 C 351.636719 129.980469 351.511719 131.644531 352.25 133.121094 C 353.113281 134.8125 354.867188 135.429688 356.066406 134.84375 C 357.019531 134.351562 357.605469 133.089844 357.207031 131.613281 C 358.34375 132.628906 359.453125 132.628906 360.222656 132.257812 C 361.175781 131.765625 361.359375 130.351562 360.683594 128.964844 C 360.003906 127.609375 358.804688 126.871094 357.820312 127.363281 C 357.421875 127.578125 357.328125 127.980469 357.511719 128.347656 C 357.726562 128.71875 358.097656 128.8125 358.4375 128.65625 C 358.804688 128.472656 358.960938 128.101562 358.773438 127.703125 C 359.511719 127.886719 360.066406 128.625 360.28125 129.085938 C 360.558594 129.640625 360.683594 130.566406 359.636719 131.089844 C 359.113281 131.335938 358.4375 131.457031 357.945312 131.335938 C 357.296875 131.148438 357.082031 130.84375 356.714844 130.257812 C 356.527344 129.949219 356.527344 129.917969 356.496094 129.855469 C 356.46875 129.828125 356.375 129.734375 356.25 129.828125 C 356.066406 129.886719 356.128906 129.980469 356.25 130.226562 Z M 356.589844 130.875 "
       style=" stroke:none;fill-rule:nonzero;fill:rgb(100%,0%,0%);fill-opacity:1;" />
  </g>
</svg>
