<?xml version="1.0" encoding="utf-8"?>
<!-- Generator: Adobe Illustrator 15.1.0, SVG Export Plug-In  -->
<!DOCTYPE svg PUBLIC "-//W3C//DTD SVG 1.1//EN" "http://www.w3.org/Graphics/SVG/1.1/DTD/svg11.dtd" [
	<!ENTITY ns_flows "http://ns.adobe.com/Flows/1.0/">
]>
<svg version="1.1"
	 xmlns="http://www.w3.org/2000/svg" xmlns:xlink="http://www.w3.org/1999/xlink" xmlns:a="http://ns.adobe.com/AdobeSVGViewerExtensions/3.0/"
	 x="0px" y="0px" width="423px" height="88px" viewBox="-7.192 -11.703 423 88" enable-background="new -7.192 -11.703 423 88"
	 xml:space="preserve">
<defs>
</defs>
<polygon points="2.673,29.373 44.037,29.373 44.037,36.826 27.082,36.826 27.082,58.514 19.747,58.514 19.747,36.904 2.673,36.904 
	"/>
<path d="M87.649,29.334v7.492H56.143c-1.578,0-1.774,1.183-1.774,2.444v0.946h33.281v7.532H54.408v0.67
	c0,1.42,0.197,2.484,1.735,2.484h31.506v7.61H56.143c-5.56,0-9.346-3.667-9.346-9.267V38.68c0-5.205,4.022-9.307,9.346-9.307
	L87.649,29.334z"/>
<path d="M92.854,29.373h33.32c7.334,0,7.334,2.287,7.334,9.227c0,3.353-0.591,3.55-1.656,5.088c0.828,1.223,1.932,1.932,1.932,3.942
	l1.38,10.884h-7.689l-1.301-10.884h-25.71v10.884h-7.65L92.854,29.373 M100.465,40.296h23.975c1.38,0,1.735-1.696,1.735-3.47h-25.71
	V40.296z"/>
<path d="M147.034,58.514h-7.019V37.141c0-3.785,3.036-7.807,7.019-7.807c4.062,0,7.019,4.416,8.399,7.807l6.073,14.788l6.191-14.788
	c1.38-3.352,4.219-7.807,8.399-7.807c4.258,0,7.058,3.785,7.058,7.807v21.373h-7.058V37.141l-6.98,15.261
	c-1.932,4.22-3.391,6.861-7.61,6.861c-3.707,0-6.073-3.549-7.571-6.9l-6.901-15.222V58.514z"/>
<rect x="188.596" y="29.334" width="8.123" height="29.18"/>
<path d="M202.121,35.84c0-3.864,3.549-6.9,7.374-6.9c2.169,0,4.101,0.906,5.994,2.76l19.834,19.086V29.334h7.413v21.451
	c0,4.652-3.43,8.044-7.413,8.044c-2.168,0-3.588-0.828-8.044-4.731l-17.784-17.351v21.767h-7.374V35.84z"/>
<path d="M247.271,35.762c0-5.088,3.588-6.822,7.373-6.822c2.17,0,4.102,0.906,5.994,2.76l27.248,26.814h-11.553l-7.453-7.492
	h-14.236v7.492h-7.373V35.84V35.762 M254.644,44.752h7.967l-7.967-8.005V44.752z"/>
<polygon points="274.833,29.373 316.199,29.373 316.199,36.826 299.244,36.826 299.244,58.514 291.908,58.514 291.908,36.904 
	274.833,36.904 "/>
<path d="M360.916,49.681c0,5.639-3.668,8.833-9.268,8.833h-22.516c-5.441,0-9.307-3.392-9.307-8.833V37.732
	c0.436-4.731,4.023-8.398,9.346-8.398h22.477c6.113,0,9.268,3.824,9.268,9.266V49.681 M353.304,39.271
	c0-1.222-0.039-2.444-1.656-2.444h-22.516c-1.773,0-1.773,0.945-1.773,1.893v9.7c0,1.42,0.197,2.444,1.734,2.444h22.477
	c1.734,0,1.734-0.985,1.734-2.05V39.271z"/>
<path d="M365.449,29.373h33.322c7.334,0,7.334,2.287,7.334,9.227c0,3.353-0.592,3.55-1.656,5.088
	c0.828,1.223,1.932,1.932,1.932,3.942l1.381,10.884h-7.689l-1.301-10.884H373.06v10.884h-7.65L365.449,29.373 M373.06,40.296h23.975
	c1.381,0,1.736-1.696,1.736-3.47H373.06V40.296z"/>
<polygon points="155.413,0.028 184.222,0.028 184.222,5.217 172.414,5.217 172.414,20.323 167.304,20.323 167.304,5.271 
	155.413,5.271 "/>
<polygon points="194.959,0 194.959,7.498 213.334,7.498 213.334,0 218.635,0 218.635,20.323 213.252,20.323 213.252,12.659 
	194.987,12.659 194.987,20.323 189.66,20.323 189.66,0 "/>
<path d="M252.416,0v5.217h-21.945c-1.1,0-1.235,0.824-1.235,1.703v0.658h23.18v5.246h-23.153v0.468c0,0.99,0.138,1.732,1.208,1.732
	h21.945v5.299h-21.945c-3.871,0-6.509-2.556-6.509-6.454V6.507c0-3.622,2.801-6.479,6.509-6.479L252.416,0z"/>
<rect y="5.703" width="145.472" height="4.473"/>
<rect x="264.962" y="5.703" width="145.471" height="4.473"/>
</svg>
